<svg width="81" height="66" viewBox="0 0 81 66" fill="none" xmlns="http://www.w3.org/2000/svg">
<g id="Venturastic__AI_ 1" clip-path="url(#clip0_0_671)">
<g id="Group 2">
<g id="Group">
<g id="Group_2">
<path id="Vector" d="M1.24597 59.2577H3.09931C4.58438 59.2577 5.58784 60.2494 5.58784 61.635C5.58784 63.0206 4.58438 64.0124 3.09931 64.0124H1.24597V59.2577ZM3.07264 63.6998C4.39718 63.6998 5.24678 62.8438 5.24678 61.6348C5.24678 60.4262 4.39718 59.5702 3.07264 59.5702H1.58731V63.6996H3.07264V63.6998Z" fill="#009DC4"/>
<path id="Vector_2" d="M7.18677 59.3328C7.18677 59.1835 7.3073 59.0544 7.46117 59.0544C7.61504 59.0544 7.73557 59.1763 7.73557 59.3256C7.73557 59.4819 7.61504 59.6046 7.46117 59.6046C7.3073 59.6046 7.18677 59.4822 7.18677 59.3328ZM7.29397 60.467H7.62837V64.0123H7.29397V60.467Z" fill="#009DC4"/>
<path id="Vector_3" d="M12.4721 60.467L10.8935 64.0124H10.5521L8.97986 60.467H9.33453L10.726 63.6388L12.1311 60.467H12.4721Z" fill="#009DC4"/>
<path id="Vector_4" d="M16.6803 62.3213H13.6765C13.7099 63.1637 14.3189 63.7343 15.1549 63.7343C15.5965 63.7343 16.0045 63.5709 16.2723 63.2381L16.4661 63.4623C16.1584 63.8426 15.6768 64.0394 15.148 64.0394C14.0909 64.0394 13.3483 63.2925 13.3483 62.2397C13.3483 61.1869 14.0643 60.4399 15.0211 60.4399C15.9776 60.4399 16.6869 61.1733 16.6869 62.2261C16.6869 62.2533 16.6803 62.2871 16.6803 62.3213ZM13.6829 62.0565H16.3592C16.3123 61.289 15.7637 60.7389 15.0211 60.7389C14.2787 60.7389 13.7368 61.2821 13.6829 62.0565Z" fill="#009DC4"/>
<path id="Vector_5" d="M20.0054 60.4403V60.7731C19.9788 60.7731 19.9521 60.7662 19.9249 60.7662C19.1489 60.7662 18.6873 61.2894 18.6873 62.1656V64.0128H18.3529V60.4675H18.674V61.2419C18.8881 60.7254 19.3497 60.4403 20.0054 60.4403Z" fill="#009DC4"/>
<path id="Vector_6" d="M21.0759 63.5848L21.2298 63.3131C21.4973 63.544 21.9722 63.7408 22.4877 63.7408C23.2234 63.7408 23.5178 63.476 23.5178 63.0752C23.5178 62.043 21.2031 62.8035 21.2031 61.4115C21.2031 60.875 21.6445 60.4403 22.5277 60.4403C22.9693 60.4403 23.4509 60.5763 23.7253 60.7864L23.5714 61.0582C23.277 60.8408 22.8957 60.739 22.521 60.739C21.8389 60.739 21.5378 61.0243 21.5378 61.4046C21.5378 62.4707 23.8525 61.7168 23.8525 63.0683C23.8525 63.6459 23.3642 64.0395 22.4743 64.0395C21.8989 64.0395 21.3503 63.8427 21.0759 63.5848Z" fill="#009DC4"/>
<path id="Vector_7" d="M25.3104 59.3328C25.3104 59.1835 25.431 59.0544 25.5848 59.0544C25.7387 59.0544 25.8592 59.1763 25.8592 59.3256C25.8592 59.4819 25.7387 59.6046 25.5848 59.6046C25.431 59.6046 25.3104 59.4822 25.3104 59.3328ZM25.4176 60.467H25.752V64.0123H25.4176V60.467Z" fill="#009DC4"/>
<path id="Vector_8" d="M29.5254 63.7879C29.3516 63.9577 29.0705 64.0391 28.8097 64.0391C28.1942 64.0391 27.8596 63.6724 27.8596 63.0748V60.759H27.2172V60.4668H27.8596V59.6924H28.194V60.4668H29.3044V60.759H28.194V63.0409C28.194 63.4961 28.4145 63.7473 28.8428 63.7473C29.0502 63.7473 29.2441 63.6793 29.3849 63.5505L29.5254 63.7879Z" fill="#009DC4"/>
<path id="Vector_9" d="M33.8206 60.467L32.0278 64.4945C31.7467 65.1465 31.3987 65.3574 30.9371 65.3574C30.623 65.3574 30.3283 65.2486 30.1278 65.0382L30.295 64.7798C30.4758 64.9702 30.6833 65.0582 30.9441 65.0582C31.2654 65.0582 31.4995 64.9089 31.7134 64.4268L31.9009 63.999L30.3286 60.467H30.6833L32.0814 63.6388L33.4795 60.467H33.8206Z" fill="#009DC4"/>
<path id="Vector_10" d="M37.4199 59.3328C37.4199 59.1835 37.5405 59.0544 37.6943 59.0544C37.8482 59.0544 37.9687 59.1763 37.9687 59.3256C37.9687 59.4819 37.8482 59.6046 37.6943 59.6046C37.5405 59.6046 37.4199 59.4822 37.4199 59.3328ZM37.5271 60.467H37.8615V64.0123H37.5271V60.467Z" fill="#009DC4"/>
<path id="Vector_11" d="M43.0265 61.941V64.0125H42.6918V61.9679C42.6918 61.1666 42.2708 60.7453 41.5612 60.7453C40.7382 60.7453 40.2366 61.2818 40.2366 62.1242V64.0122H39.9022V60.4669H40.2233V61.2343C40.4577 60.7386 40.946 60.4399 41.6084 60.4399C42.458 60.4402 43.0265 60.9493 43.0265 61.941Z" fill="#009DC4"/>
<path id="Vector_12" d="M51.228 59.2577L49.1406 64.0121H48.7992L46.7118 59.2577H47.0865L48.9801 63.5641L50.8731 59.2577H51.228Z" fill="#009DC4"/>
<path id="Vector_13" d="M55.1892 62.3213H52.1849C52.2185 63.1637 52.8273 63.7343 53.6639 63.7343C54.1049 63.7343 54.5132 63.5709 54.7809 63.2381L54.9748 63.4623C54.6671 63.8426 54.1855 64.0394 53.6567 64.0394C52.5999 64.0394 51.8569 63.2925 51.8569 62.2397C51.8569 61.1869 52.5729 60.4399 53.5297 60.4399C54.4865 60.4399 55.1956 61.1733 55.1956 62.2261C55.1959 62.2533 55.1892 62.2871 55.1892 62.3213ZM52.1919 62.0565H54.8679C54.8209 61.289 54.2724 60.7389 53.5297 60.7389C52.7871 60.7389 52.2455 61.2821 52.1919 62.0565Z" fill="#009DC4"/>
<path id="Vector_14" d="M59.9857 61.941V64.0125H59.6511V61.9679C59.6511 61.1666 59.23 60.7453 58.5204 60.7453C57.6975 60.7453 57.1959 61.2818 57.1959 62.1242V64.0122H56.8612V60.4669H57.1825V61.2343C57.4169 60.7386 57.9049 60.4399 58.5676 60.4399C59.4172 60.4402 59.9857 60.9493 59.9857 61.941Z" fill="#009DC4"/>
<path id="Vector_15" d="M63.7254 63.7879C63.551 63.9577 63.2702 64.0391 63.0094 64.0391C62.3939 64.0391 62.059 63.6724 62.059 63.0748V60.759H61.4169V60.4668H62.059V59.6924H62.3937V60.4668H63.5043V60.759H62.3937V63.0409C62.3937 63.4961 62.6145 63.7473 63.0427 63.7473C63.2502 63.7473 63.4441 63.6793 63.5843 63.5505L63.7254 63.7879Z" fill="#009DC4"/>
<path id="Vector_16" d="M68.3415 60.467V64.0124H68.0202V63.2513C67.7927 63.7476 67.3178 64.0393 66.7021 64.0393C65.8122 64.0393 65.2437 63.5302 65.2437 62.5385V60.467H65.5783V62.5116C65.5783 63.3129 65.9994 63.7342 66.729 63.7342C67.5183 63.7342 68.0066 63.1977 68.0066 62.3553V60.4673H68.3415V60.467Z" fill="#009DC4"/>
<path id="Vector_17" d="M72.0415 60.4403V60.7731C72.0145 60.7731 71.9881 60.7662 71.9609 60.7662C71.1849 60.7662 70.7233 61.2894 70.7233 62.1656V64.0128H70.3887V60.4675H70.71V61.2419C70.9241 60.7254 71.3857 60.4403 72.0415 60.4403Z" fill="#009DC4"/>
<path id="Vector_18" d="M76.5105 62.3213H73.5062C73.5398 63.1637 74.1486 63.7343 74.9852 63.7343C75.4262 63.7343 75.8345 63.5709 76.1022 63.2381L76.2961 63.4623C75.9884 63.8426 75.5068 64.0394 74.978 64.0394C73.9212 64.0394 73.1782 63.2925 73.1782 62.2397C73.1782 61.1869 73.8942 60.4399 74.851 60.4399C75.8078 60.4399 76.5169 61.1733 76.5169 62.2261C76.5169 62.2533 76.5105 62.2871 76.5105 62.3213ZM73.5132 62.0565H76.1892C76.1422 61.289 75.5937 60.7389 74.851 60.7389C74.1084 60.7389 73.5668 61.2821 73.5132 62.0565Z" fill="#009DC4"/>
<path id="Vector_19" d="M77.6676 63.5848L77.8215 63.3131C78.0892 63.544 78.5644 63.7408 79.0796 63.7408C79.8156 63.7408 80.1097 63.476 80.1097 63.0752C80.1097 62.043 77.7951 62.8035 77.7951 61.4115C77.7951 60.875 78.2367 60.4403 79.1196 60.4403C79.5612 60.4403 80.0428 60.5763 80.3172 60.7864L80.1633 61.0582C79.8689 60.8408 79.4879 60.739 79.1132 60.739C78.4308 60.739 78.1295 61.0243 78.1295 61.4046C78.1295 62.4707 80.4441 61.7168 80.4441 63.0683C80.4441 63.6459 79.9559 64.0395 79.0663 64.0395C78.4905 64.0395 77.942 63.8427 77.6676 63.5848Z" fill="#009DC4"/>
</g>
<g id="Group_3">
<g id="Group_4">
<path id="Vector_20" d="M8.05954 50.0942L5.14061 56.8377H3.59928L0.689941 50.0942H2.37581L4.42781 54.9113L6.50888 50.0942H8.05954Z" fill="white"/>
<path id="Vector_21" d="M14.747 55.5852V56.8377H9.52539V50.0942H14.6214V51.3468H11.0763V52.8108H14.2073V54.0249H11.0763V55.5852H14.747Z" fill="white"/>
<path id="Vector_22" d="M23.0814 50.0942V56.8377H21.8001L18.4379 52.7433V56.8377H16.8966V50.0942H18.1873L21.5398 54.1886V50.0942H23.0814Z" fill="white"/>
<path id="Vector_23" d="M26.9846 51.3657H24.8268V50.0942H30.7033V51.3657H28.5454V56.8377H26.9849V51.3657H26.9846Z" fill="white"/>
<path id="Vector_24" d="M32.275 53.8701V50.0939H33.8356V53.8125C33.8356 55.0936 34.3945 55.6237 35.3385 55.6237C36.2924 55.6237 36.8414 55.0936 36.8414 53.8125V50.0939H38.3828V53.8701C38.3828 55.8546 37.2462 56.9528 35.3289 56.9528C33.4116 56.9528 32.275 55.8546 32.275 53.8701Z" fill="white"/>
<path id="Vector_25" d="M45.1275 56.8377L43.8273 54.959H43.7502H42.3918V56.8377H40.8315V50.0942H43.7505C45.5518 50.0942 46.679 51.0286 46.679 52.5414C46.679 53.5526 46.1683 54.2948 45.2915 54.6702L46.8038 56.8377H45.1275ZM43.6638 51.3657H42.3918V53.7164H43.6638C44.6169 53.7164 45.0985 53.2732 45.0985 52.5412C45.0985 51.7993 44.6169 51.3657 43.6638 51.3657Z" fill="white"/>
<path id="Vector_26" d="M53.2601 55.3925H50.1294L49.5318 56.8373H47.9326L50.9385 50.0939H52.4798L55.495 56.8373H53.8572L53.2601 55.3925ZM52.7689 54.2075L51.6993 51.6259L50.63 54.2075H52.7689Z" fill="white"/>
<path id="Vector_27" d="M56.5754 56.1732L57.105 54.9974C57.6736 55.4116 58.5216 55.7009 59.3304 55.7009C60.2552 55.7009 60.6309 55.3926 60.6309 54.9785C60.6309 53.7164 56.7104 54.5833 56.7104 52.0785C56.7104 50.9324 57.6352 49.9785 59.5522 49.9785C60.4003 49.9785 61.2669 50.1809 61.8931 50.5756L61.4115 51.7606C60.7853 51.4038 60.14 51.2305 59.5429 51.2305C58.6176 51.2305 58.2613 51.5772 58.2613 52.0014C58.2613 53.2441 62.1824 52.3868 62.1824 54.8622C62.1824 55.9894 61.2475 56.9526 59.321 56.9526C58.2517 56.9532 57.1725 56.6353 56.5754 56.1732Z" fill="white"/>
<path id="Vector_28" d="M65.459 51.3657H63.3011V50.0942H69.1779V51.3657H67.0201V56.8377H65.4593V51.3657H65.459Z" fill="white"/>
<path id="Vector_29" d="M70.9224 50.0942H72.4832V56.8377H70.9224V50.0942Z" fill="white"/>
<path id="Vector_30" d="M74.5649 53.4662C74.5649 51.4332 76.1257 49.9788 78.2257 49.9788C79.3913 49.9788 80.3641 50.4025 81.0001 51.1734L79.9983 52.0982C79.5452 51.5777 78.9769 51.3084 78.3025 51.3084C77.0404 51.3084 76.1447 52.1942 76.1447 53.4662C76.1447 54.7377 77.0404 55.6241 78.3025 55.6241C78.9769 55.6241 79.5452 55.3542 79.9983 54.8241L81.0001 55.7489C80.3641 56.5294 79.3913 56.9529 78.2161 56.9529C76.1257 56.9531 74.5649 55.4987 74.5649 53.4662Z" fill="white"/>
</g>
</g>
</g>
<g id="Group_5">
<g id="Group_6">
<path id="Vector_31" d="M42.6987 39.9714L59.6889 1.00256H60.6907L43.1889 41.1226L42.6987 39.9714Z" fill="#009DC4"/>
<path id="Vector_32" d="M41.1638 38.948L57.6902 1.00239L58.7294 0.994385L41.6542 40.0989L41.1638 38.948Z" fill="#009DC4"/>
<path id="Vector_33" d="M39.6289 37.9245L55.7238 0.994385L56.739 1.00239L40.1193 39.0757L39.6289 37.9245Z" fill="#009DC4"/>
<path id="Vector_34" d="M43.8711 42.4212L61.5434 1.00256H62.5029L44.3327 43.7231L43.8711 42.4212Z" fill="#009DC4"/>
<path id="Vector_35" d="M45.0037 44.7386L63.5263 1.00256H64.5178L45.5074 45.9135L45.0037 44.7386Z" fill="#009DC4"/>
</g>
<path id="Vector_36" d="M17.0129 1.00269L27.1049 1.01362L45.5073 45.9136L35.8345 45.9189L17.0129 1.00269Z" fill="white"/>
<g id="Group_7">
<path id="Vector_37" d="M41.2503 15.6732L39.3567 19.6831L41.3386 24.798L43.2762 19.7242L41.2503 15.6732Z" fill="#009DC4"/>
<path id="Vector_38" d="M37.0225 19.7241L38.8723 20.0513L40.9419 25.4119L37.0225 19.7241Z" fill="white"/>
<path id="Vector_39" d="M45.6982 19.7241L43.8486 20.0513L41.7787 25.4119L45.6982 19.7241Z" fill="white"/>
<path id="Vector_40" d="M37.595 16.8187L36.8025 18.9464L38.5638 19.2331L37.595 16.8187Z" fill="#009DC4"/>
<path id="Vector_41" d="M45.1696 16.8187L45.9624 18.9464L44.2008 19.2331L45.1696 16.8187Z" fill="#009DC4"/>
<path id="Vector_42" d="M38.0354 16.2871L40.8978 15.1412L39.0922 18.9466L38.0354 16.2871Z" fill="white"/>
<path id="Vector_43" d="M44.5972 16.2871L41.7347 15.1412L43.5404 18.9466L44.5972 16.2871Z" fill="white"/>
</g>
</g>
</g>
</g>
<defs>
<clipPath id="clip0_0_671">
<rect width="81.0001" height="66" fill="white"/>
</clipPath>
</defs>
</svg>
