<svg width="40" height="40" viewBox="0 0 40 40" fill="none" xmlns="http://www.w3.org/2000/svg">
<g clip-path="url(#clip0_0_103)">
<path d="M23.847 7.28529C23.847 9.45067 22.0916 11.2061 19.9262 11.2061C17.7608 11.2061 16.0054 9.45067 16.0054 7.28529C16.0054 5.1199 17.7608 3.3645 19.9262 3.3645C22.0916 3.3645 23.847 5.1199 23.847 7.28529Z" stroke="white" stroke-width="1.5"/>
<path d="M31.7697 19.9616L31.7703 19.9617L36.1232 20.8697C36.1233 20.8697 36.1234 20.8697 36.1235 20.8697C37.631 21.1849 38.6135 22.684 38.2991 24.1991L37.2043 29.4211L37.2039 29.4228C36.8919 30.9289 35.3926 31.9096 33.8846 31.596C33.8844 31.5959 33.8841 31.5959 33.8839 31.5958L32.4841 31.3025L31.995 31.2L31.7121 31.6118C29.7261 34.5028 25.2946 36.6354 20.0001 36.6354C16.5522 36.6354 13.338 35.7451 10.9341 34.1695L10.9337 34.1692C9.78623 33.4182 8.90635 32.5507 8.27743 31.6214L7.99535 31.2045L7.5027 31.3076L6.12451 31.5959C6.12444 31.596 6.12438 31.596 6.12432 31.596C4.61512 31.9112 3.11539 30.9294 2.80325 29.4228L2.80293 29.4213L1.70958 24.1984C1.70956 24.1983 1.70953 24.1982 1.70951 24.1981C1.39403 22.6834 2.37634 21.1848 3.88207 20.8697C3.88216 20.8697 3.88224 20.8697 3.88232 20.8697L8.2385 19.9617L8.23906 19.9616C9.40182 19.7183 10.5623 20.2531 11.1781 21.2186L11.5451 21.794L12.1525 21.4828C12.8734 21.1133 13.6351 20.7962 14.4465 20.5377L14.9688 20.3714V19.8231V17.2208C14.9688 15.6755 16.2304 14.4106 17.7773 14.4106H22.2283C23.7654 14.4106 25.033 15.676 25.0316 17.2202V17.2208V19.8094V20.3562L25.5521 20.5235C26.3755 20.7881 27.1459 21.1058 27.8593 21.4722L28.4657 21.7837L28.8335 21.2096C29.4484 20.2496 30.607 19.718 31.7697 19.9616ZM9.41967 30.9043L8.18209 31.1639L9.00338 32.1254C9.56681 32.785 10.2621 33.3923 11.0884 33.9323C13.4876 35.5124 16.6589 36.3519 19.9984 36.3519C24.6621 36.3519 28.8382 34.6989 31.0115 32.1257L31.8227 31.1652L30.5922 30.9076L29.5262 30.6845L29.5252 30.6843C28.017 30.3708 27.0361 28.8728 27.3482 27.3612C27.3483 27.3608 27.3484 27.3603 27.3485 27.3599L28.3421 22.6117L28.4573 22.061L27.9609 21.7963C27.3583 21.475 26.713 21.1944 26.0315 20.9516L25.0298 20.5948V21.6581V22.5594C25.0298 24.0996 23.7648 25.3661 22.2265 25.3661H17.7754C16.2311 25.3661 14.967 24.1003 14.967 22.5594V21.7028V20.6355L13.9628 20.9971C13.2893 21.2397 12.6548 21.5243 12.0509 21.8489L11.5574 22.1142L11.6718 22.6628L12.652 27.3593L12.652 27.3594C12.9674 28.8699 11.986 30.3688 10.4767 30.6825L10.4754 30.6828L9.41967 30.9043Z" stroke="white" stroke-width="1.5"/>
<path d="M39.2503 13.4254C39.2503 15.5908 37.4949 17.3462 35.3295 17.3462C33.1641 17.3462 31.4087 15.5908 31.4087 13.4254C31.4087 11.26 33.1641 9.50464 35.3295 9.50464C37.4949 9.50464 39.2503 11.26 39.2503 13.4254Z" stroke="white" stroke-width="1.5"/>
<path d="M3.86861 9.58657L3.86842 9.58661C1.75057 10.0289 0.390312 12.1067 0.834087 14.2261L0.834205 14.2267C1.27656 16.3474 3.35407 17.7066 5.47581 17.2642L3.86861 9.58657ZM3.86861 9.58657C5.99052 9.14287 8.06575 10.5019 8.51345 12.6207M3.86861 9.58657L8.51345 12.6207M8.51345 12.6207C8.95118 14.7425 7.59507 16.8205 5.47598 17.2641L8.51345 12.6207Z" stroke="white" stroke-width="1.5"/>
</g>
<defs>
<clipPath id="clip0_0_103">
<rect width="40" height="40" fill="white"/>
</clipPath>
</defs>
</svg>
