<svg width="40" height="39" viewBox="0 0 40 39" fill="none" xmlns="http://www.w3.org/2000/svg">
<g clip-path="url(#clip0_0_113)">
<path d="M16.4686 27.1817H13.2817C12.8503 27.1817 12.5005 26.8432 12.5005 26.4258C12.5005 26.0084 12.8503 25.6699 13.2817 25.6699H16.4686C16.9 25.6699 17.2499 26.0084 17.2499 26.4258C17.2499 26.8432 16.9 27.1817 16.4686 27.1817Z" fill="#FFF8F8"/>
<path d="M26.7181 27.1817H23.5312C23.0998 27.1817 22.75 26.8432 22.75 26.4258C22.75 26.0084 23.0998 25.6699 23.5312 25.6699H26.7181C27.1495 25.6699 27.4994 26.0084 27.4994 26.4258C27.4994 26.8432 27.1495 27.1817 26.7181 27.1817Z" fill="#FFF8F8"/>
<path d="M19.9856 27.1817C19.6597 27.1817 19.3594 26.9779 19.2501 26.6804C19.1424 26.387 19.2342 26.051 19.4803 25.8497C19.7371 25.6395 20.1117 25.6142 20.3975 25.7844C20.6711 25.9473 20.8139 26.2687 20.7513 26.5732C20.6793 26.9225 20.3538 27.1817 19.9856 27.1817Z" fill="#FFF8F8"/>
<path d="M24.5343 30.1597H15.4653C15.0339 30.1597 14.6841 29.8212 14.6841 29.4038C14.6841 28.9864 15.0338 28.6479 15.4653 28.6479H24.5343C24.9657 28.6479 25.3156 28.9864 25.3156 29.4038C25.3156 29.8212 24.9658 30.1597 24.5343 30.1597Z" fill="#FFF8F8"/>
<path d="M23.3217 17.8708C24.3715 16.9773 25.035 15.6685 25.035 14.2125C25.035 11.5261 22.7763 9.34058 19.9999 9.34058C17.2235 9.34058 14.9647 11.5261 14.9647 14.2125C14.9647 15.6685 15.6282 16.9773 16.678 17.8708C14.9042 18.5263 13.6411 20.1899 13.6411 22.1337V23.4296C13.6411 23.847 13.9909 24.1855 14.4224 24.1855H25.5774C26.0088 24.1855 26.3587 23.847 26.3587 23.4296V22.1337C26.3586 20.1899 25.0955 18.5263 23.3217 17.8708ZM19.9999 10.8524C21.9148 10.8524 23.4726 12.3597 23.4726 14.2125C23.4726 16.0653 21.9147 17.5726 19.9999 17.5726C18.085 17.5726 16.5271 16.0653 16.5271 14.2125C16.5271 12.3597 18.0849 10.8524 19.9999 10.8524ZM24.7962 22.6737H15.2035V22.1336C15.2035 20.4523 16.6173 19.0843 18.3549 19.0843H21.6447C23.3824 19.0843 24.7961 20.4523 24.7961 22.1336V22.6737H24.7962Z" fill="#FFF8F8"/>
<path d="M9.43015 37.8943C8.82968 37.8943 8.23639 37.7115 7.72882 37.3546C6.8971 36.77 6.45358 35.8292 6.54249 34.8381L7.42803 24.9632L0.713499 17.4781C0.0395923 16.7269 -0.173064 15.7136 0.144671 14.7676C0.462249 13.8216 1.24983 13.1229 2.25123 12.8984L12.2301 10.6619L17.5118 2.16923C18.0419 1.31697 18.9721 0.808105 20 0.808105C21.028 0.808105 21.9581 1.31689 22.4882 2.16923L27.7698 10.6619L37.7488 12.8984C38.7502 13.1229 39.5376 13.8216 39.8553 14.7676C40.1731 15.7137 39.9605 16.7269 39.2866 17.4781L32.572 24.9632L33.4575 34.8382C33.5464 35.8292 33.1029 36.77 32.2712 37.3546C31.4395 37.9393 30.3778 38.0566 29.4315 37.6686L20 33.802L10.5685 37.6686C10.1998 37.8198 9.81343 37.8943 9.43015 37.8943ZM20 2.31996C19.5251 2.31996 19.0954 2.55504 18.8505 2.94878L13.3982 11.7158C13.2891 11.8911 13.1112 12.0162 12.9051 12.0624L2.60381 14.3712C2.14116 14.4749 1.77733 14.7978 1.63061 15.2348C1.48389 15.6719 1.58209 16.1401 1.89342 16.4872L8.82499 24.2142C8.96366 24.3688 9.03155 24.5712 9.01335 24.775L8.09913 34.9689C8.05803 35.4269 8.26296 35.8615 8.64718 36.1316C9.03124 36.4016 9.52163 36.456 9.9589 36.2766L19.6952 32.2851C19.89 32.2052 20.1098 32.2052 20.3047 32.2851L30.0409 36.2766C30.4781 36.4558 30.9684 36.4016 31.3527 36.1316C31.737 35.8615 31.9419 35.4269 31.9007 34.969L30.9865 24.775C30.9683 24.5712 31.0362 24.3688 31.1748 24.2142L38.1065 16.4872C38.4178 16.1401 38.516 15.6719 38.3692 15.2348C38.2224 14.7978 37.8586 14.4749 37.396 14.3712L27.0947 12.0625C26.8886 12.0163 26.7107 11.8912 26.6016 11.7159L21.1493 2.94885C20.9045 2.55504 20.4749 2.31996 20 2.31996Z" fill="#FFF8F8"/>
</g>
<defs>
<clipPath id="clip0_0_113">
<rect width="40" height="38.7014" fill="white"/>
</clipPath>
</defs>
</svg>
