<svg width="70" height="70" viewBox="0 0 70 70" fill="none" xmlns="http://www.w3.org/2000/svg">
<g id="compass 1" clip-path="url(#clip0_0_272)">
<g id="Page 1">
<g id="031   Compass">
<path id="Shape" d="M0.87145 36.1284L1.20745 36.2159C1.91466 53.905 16.0928 68.0832 33.782 68.7904L33.8695 69.1264C34.0029 69.6409 34.4672 70.0003 34.9988 70.0003C35.5304 70.0003 35.9947 69.6409 36.1281 69.1264L36.2156 68.7904C53.9048 68.0832 68.0829 53.905 68.7901 36.2159L69.1261 36.1284C69.6407 35.995 70 35.5306 70 34.999C70 34.4675 69.6407 34.0031 69.1261 33.8697L68.7901 33.7822C68.0829 16.093 53.9048 1.91491 36.2156 1.20769L36.1281 0.871694C35.9947 0.357133 35.5304 -0.00219727 34.9988 -0.00219727C34.4672 -0.00219727 34.0029 0.357133 33.8695 0.871694L33.782 1.20769C16.0928 1.91491 1.91466 16.093 1.20745 33.7822L0.87145 33.8697C0.356889 34.0031 -0.00244141 34.4675 -0.00244141 34.999C-0.00244141 35.5306 0.356889 35.995 0.87145 36.1284ZM36.8305 66.4349L37.457 64.0339C40.4375 63.7929 43.3623 63.0896 46.1265 61.949C46.1381 61.949 46.1498 61.949 46.1603 61.942C46.1708 61.935 46.1801 61.9269 46.193 61.921C49.719 60.4622 52.9222 58.3212 55.6185 55.621C58.3148 52.9286 60.453 49.7303 61.9103 46.2095C61.9185 46.1932 61.9313 46.1804 61.9383 46.1629C61.9453 46.1454 61.9383 46.1407 61.9453 46.129C63.0843 43.3646 63.7865 40.4398 64.0266 37.4595L66.4276 36.833C65.4322 52.7493 52.7466 65.4369 36.8305 66.4349ZM44.0766 13.082C44.3625 13.2006 44.6838 13.2007 44.9698 13.0824C45.2558 12.964 45.483 12.7368 45.6015 12.4509L46.3225 10.7114C48.8037 11.8632 51.0924 13.3908 53.1078 15.2404L52.8406 15.5075C52.5373 15.8004 52.4157 16.2342 52.5225 16.6421C52.6292 17.05 52.9478 17.3686 53.3557 17.4753C53.7636 17.5821 54.1974 17.4605 54.4903 17.1572L54.7575 16.89C56.6069 18.9056 58.1346 21.1942 59.2865 23.6754L57.547 24.3964C56.9516 24.6428 56.6688 25.3252 56.9152 25.9206C57.1617 26.516 57.8441 26.7988 58.4395 26.5524L60.1895 25.8279C60.9097 27.7925 61.3945 29.8356 61.6338 31.9144L47.033 28.1064L51.1921 20.3854C51.4355 19.9319 51.353 19.3726 50.9891 19.0087C50.6252 18.6448 50.0659 18.5624 49.6125 18.8057L41.8915 22.9649L38.0835 8.36636C40.1622 8.60591 42.2052 9.09073 44.17 9.81069L43.4455 11.5607C43.2009 12.1551 43.4831 12.8354 44.0766 13.082ZM44.709 27.4997L42.959 27.0424L42.5016 25.2924L47.2966 22.7082L44.709 27.4997ZM42.3488 29.2964L45.0006 29.9882L45.0321 29.9964L59.738 33.8324H37.8151L42.3488 29.2964ZM59.738 36.1657L42.3488 40.7017L37.8151 36.1657H59.738ZM44.709 42.4984L47.2931 47.2934L42.4981 44.7092L42.9555 42.9592L44.709 42.4984ZM49.609 51.1924C50.0624 51.4357 50.6217 51.3532 50.9856 50.9893C51.3495 50.6255 51.432 50.0661 51.1886 49.6127L47.0295 41.8917L61.628 38.0837C61.3884 40.1624 60.9036 42.2055 60.1836 44.1702L58.4336 43.4457C57.8383 43.1992 57.1558 43.4821 56.9094 44.0774C56.6629 44.6728 56.9458 45.3552 57.5411 45.6017L59.2806 46.3227C58.1288 48.8039 56.6012 51.0926 54.7516 53.108L54.4845 52.8409C54.0267 52.3987 53.299 52.405 52.849 52.8551C52.399 53.3051 52.3927 54.0328 52.8348 54.4905L53.102 54.7577C51.0864 56.6072 48.7978 58.1348 46.3166 59.2867L45.5956 57.5472C45.3492 56.9518 44.6667 56.669 44.0714 56.9154C43.476 57.1619 43.1932 57.8443 43.4396 58.4397L44.1641 60.1897C42.1995 60.9099 40.1564 61.3947 38.0776 61.634L41.8856 47.0355L49.609 51.1924ZM66.4346 33.1674L64.0336 32.5409C63.7926 29.56 63.0893 26.6348 61.9488 23.8702C61.9488 23.8597 61.9488 23.848 61.9418 23.8375C61.9348 23.827 61.9266 23.8177 61.9208 23.806C60.4623 20.2795 58.3213 17.0759 55.6208 14.3794C52.9246 11.6785 49.7209 9.53744 46.1941 8.07936C46.1825 8.07936 46.1755 8.06303 46.1626 8.05836C46.1498 8.05369 46.1405 8.05836 46.1288 8.05136C43.3643 6.91237 40.4395 6.2102 37.4593 5.97003L36.8305 3.56319C52.7502 4.55793 65.4399 17.2477 66.4346 33.1674ZM36.1655 10.2657L40.7015 27.649L36.1655 32.1827V10.2657ZM36.1655 37.8212L40.7015 42.349L36.1655 59.7382V37.8212ZM33.8321 59.7382L29.2961 42.349L33.8321 37.8154V59.7382ZM25.921 56.916C25.6351 56.7974 25.3138 56.7973 25.0278 56.9157C24.7418 57.0341 24.5146 57.2612 24.3961 57.5472L23.6751 59.2867C21.1939 58.1349 18.9052 56.6073 16.8898 54.7577L17.157 54.4905C17.5991 54.0328 17.5928 53.3051 17.1427 52.8551C16.6927 52.405 15.9651 52.3987 15.5073 52.8409L15.2401 53.108C13.3906 51.0925 11.863 48.8038 10.7111 46.3227L12.4506 45.6017C13.046 45.3552 13.3288 44.6728 13.0824 44.0774C12.8359 43.4821 12.1535 43.1992 11.5581 43.4457L9.80812 44.1702C9.08791 42.2055 8.60309 40.1625 8.36379 38.0837L22.9623 41.8917L18.8055 49.6127C18.5621 50.0661 18.6446 50.6255 19.0085 50.9893C19.3724 51.3532 19.9317 51.4357 20.3851 51.1924L28.1061 47.0332L31.9141 61.6317C29.8354 61.3921 27.7923 60.9073 25.8276 60.1874L26.5521 58.4374C26.7967 57.843 26.5145 57.1627 25.921 56.916ZM12.4506 24.3964L10.7111 23.6754C11.8629 21.1942 13.3905 18.9055 15.2401 16.89L15.5073 17.1572C15.9651 17.5993 16.6927 17.593 17.1427 17.143C17.5928 16.693 17.5991 15.9653 17.157 15.5075L16.8898 15.2404C18.9053 13.3909 21.194 11.8633 23.6751 10.7114L24.3961 12.4509C24.6426 13.0462 25.325 13.3291 25.9204 13.0826C26.5157 12.8362 26.7986 12.1537 26.5521 11.5584L25.8276 9.80836C27.7923 9.08815 29.8354 8.60333 31.9141 8.36403L28.1061 22.9649L20.3851 18.8057C19.9317 18.5624 19.3724 18.6448 19.0085 19.0087C18.6446 19.3726 18.5621 19.9319 18.8055 20.3854L22.9646 28.1064L8.36612 31.9144C8.60567 29.8356 9.09049 27.7926 9.81045 25.8279L11.5605 26.5524C11.9456 26.7118 12.3865 26.6536 12.7172 26.3998C13.0478 26.146 13.2179 25.7351 13.1634 25.3218C13.1089 24.9086 12.8381 24.5558 12.453 24.3964H12.4506ZM10.2655 36.1657H32.1825L27.6488 40.7017L10.2655 36.1657ZM27.5053 44.7092L22.7103 47.2934L25.2945 42.4984L27.0445 42.9557L27.5053 44.7092ZM10.2655 33.8324L24.9655 29.9964L24.997 29.9882L27.6488 29.2964L32.1825 33.8324H10.2655ZM22.7103 22.7047L27.5053 25.2889L27.048 27.0389L25.298 27.4962L22.7103 22.7047ZM33.8321 10.2657V32.1827L29.2961 27.649L33.8321 10.2657ZM33.1671 3.56903L32.5406 5.97003C29.5601 6.20918 26.6349 6.91057 23.87 8.04903C23.8595 8.04903 23.8478 8.04903 23.8373 8.05603C23.8268 8.06303 23.8175 8.07119 23.8046 8.07703C20.2786 9.53584 17.0754 11.6768 14.3791 14.377C11.6783 17.0732 9.5372 20.2769 8.07912 23.8037C8.07912 23.8154 8.06279 23.8224 8.05812 23.8352C8.05345 23.848 8.05812 23.8574 8.05112 23.869C6.91212 26.6335 6.20996 29.5583 5.96979 32.5385L3.56878 33.165C4.56433 17.2483 17.2505 4.56062 33.1671 3.56319V3.56903ZM5.96395 37.4572C6.20497 40.4381 6.90833 43.3633 8.04879 46.1279C8.04879 46.1384 8.04879 46.15 8.05579 46.1605C8.06456 46.177 8.0743 46.193 8.08495 46.2084C9.54217 49.7285 11.6799 52.9264 14.3756 55.6187C17.0718 58.3196 20.2755 60.4606 23.8023 61.9187C23.814 61.9245 23.821 61.935 23.8338 61.9397C23.8466 61.9444 23.8571 61.9397 23.8688 61.9467C26.6329 63.0857 29.5572 63.7879 32.5371 64.028L33.1636 66.429C17.2474 65.4329 4.56032 52.7469 3.56295 36.8307L5.96395 37.4572Z" fill="white"/>
</g>
</g>
</g>
<defs>
<clipPath id="clip0_0_272">
<rect width="70" height="70" fill="white"/>
</clipPath>
</defs>
</svg>
