<svg width="70" height="70" viewBox="0 0 70 70" fill="none" xmlns="http://www.w3.org/2000/svg">
<g id="empathy 1" clip-path="url(#clip0_0_282)">
<g id="Page 1">
<g id="034   Empathy">
<path id="Shape" d="M6.56844 57.8419C6.45144 58.9026 6.5849 59.9759 6.95811 60.9756C7.47556 62.8339 9.15465 64.1298 11.0834 64.1594C11.4041 64.1586 11.7238 64.1254 12.0378 64.0602C15.355 63.2573 18.6264 62.2759 21.8378 61.1202C24.4581 62.6637 26.1159 67.3514 26.5476 69.1096C26.6751 69.6323 27.1436 70 27.6816 69.9997L56.8844 69.9192C57.2537 69.9183 57.6008 69.7427 57.8202 69.4456C58.0395 69.1485 58.1053 68.7651 57.9974 68.4119C57.7115 67.6151 57.314 66.8629 56.8168 66.1777C56.5419 65.7829 56.2936 65.3701 56.0736 64.9422C55.5474 63.8643 55.1065 62.7467 54.7553 61.5997C54.089 59.3464 53.6298 57.0369 53.3833 54.7001C53.1623 52.8651 53.2051 51.008 53.5104 49.1852C53.5856 48.7708 53.4316 48.348 53.1075 48.0791C52.7833 47.8101 52.3394 47.7368 51.946 47.8871C51.5525 48.0375 51.2707 48.3883 51.2086 48.8049C50.8672 50.846 50.8196 52.9255 51.0674 54.9801C51.3295 57.455 51.8172 59.9008 52.5246 62.2869C52.9091 63.5446 53.3916 64.7703 53.9678 65.9526C54.2317 66.4735 54.5307 66.9759 54.8626 67.4564L54.9489 67.5859L28.5624 67.6664C27.7881 64.8986 26.3833 62.3477 24.4581 60.2137C24.7626 60.1087 25.0496 60.0072 25.3168 59.9139C26.1894 59.6071 26.8486 59.3749 27.1834 59.2711C32.1744 57.7007 34.6699 55.4281 34.6011 52.5149C34.5998 52.2037 34.4718 51.9064 34.2467 51.6916C34.0215 51.4768 33.7185 51.3629 33.4076 51.3762C32.7637 51.3915 32.2539 51.9258 32.2689 52.5697C32.2969 53.7714 31.3158 55.5249 26.4811 57.0451C26.1369 57.1536 25.4533 57.3951 24.5479 57.7124C23.7149 58.0041 22.6894 58.3646 21.5659 58.7484C18.2875 59.937 14.9471 60.9472 11.5594 61.7747C10.4696 61.9842 9.40976 61.2923 9.16311 60.2102C8.91072 59.555 8.81407 58.8501 8.88077 58.1511C8.91344 57.9096 8.96827 57.6681 9.02077 57.4266C9.2601 56.6169 9.29775 55.761 9.13044 54.9334C8.79588 53.8635 8.01228 52.9922 6.98377 52.5464L6.73527 52.4029C6.86017 52.1474 7.00983 51.9047 7.18211 51.6784C7.37569 51.4305 7.46096 51.1149 7.41856 50.8032C7.37617 50.4915 7.20971 50.2101 6.95694 50.0229C6.67811 49.8152 6.01311 49.3159 5.53477 48.9332C5.59311 48.8236 5.66194 48.6999 5.72261 48.5949C5.90111 48.2787 6.10527 47.9136 6.30594 47.4959C6.67927 46.6805 6.78859 45.7689 6.61861 44.8884C6.34794 43.4581 4.98527 42.7604 3.98894 42.2517C3.65285 42.0919 3.33053 41.9046 3.02527 41.6917C2.78062 41.5231 2.54932 41.3359 2.33344 41.1317C2.33344 40.9567 2.51777 40.5321 3.41377 39.4331C5.49414 36.7454 7.27711 33.8401 8.73144 30.7682C9.01144 30.2865 9.16814 29.7431 9.18761 29.1862C9.06919 28.0129 8.44728 26.9487 7.48311 26.2696C7.01644 25.8379 6.56727 25.4296 6.51827 25.0702C6.5228 24.788 6.58638 24.5098 6.70494 24.2536C6.89511 23.7461 7.11794 23.2479 7.34077 22.7509C7.8154 21.7698 8.19362 20.7449 8.47011 19.6907L8.56461 19.2801C8.81309 18.0839 9.1373 16.9048 9.53527 15.7497C10.4484 13.212 11.8691 10.8869 13.7108 8.91657C15.9659 6.53074 19.3761 4.9044 24.1373 3.94307C27.7335 3.15546 31.3824 2.63101 35.0549 2.3739C39.7226 2.0864 44.3728 3.16693 48.4354 5.48307C48.8004 5.68481 49.2452 5.67654 49.6023 5.46138C49.9595 5.24622 50.1748 4.85686 50.167 4.43996C50.1593 4.02307 49.9297 3.64197 49.5648 3.44024C45.1147 0.927058 40.0359 -0.25346 34.9336 0.0394042C31.1469 0.301797 27.3845 0.840678 23.6764 1.65174C18.4264 2.71107 14.6114 4.5614 12.0098 7.3089C9.95208 9.50839 8.36421 12.1042 7.34311 14.9377C6.91281 16.1847 6.56211 17.4578 6.29311 18.7492L6.19861 19.1576C5.95338 20.0657 5.6225 20.9486 5.21044 21.7942C4.96894 22.3344 4.72861 22.8746 4.52211 23.4276C4.25103 24.0436 4.14257 24.7188 4.20711 25.3887C4.44407 26.4305 5.04729 27.3525 5.90694 27.9869C6.47744 28.5107 6.85194 28.8794 6.85544 29.2131C6.81095 29.3886 6.74224 29.557 6.65127 29.7136C5.25713 32.6605 3.5477 35.4476 1.55294 38.0261C0.721106 39.0469 -0.152728 40.2427 0.0246056 41.4491C0.276766 42.3687 0.882916 43.151 1.71044 43.6249C2.09556 43.8909 2.50174 44.125 2.92494 44.3249C3.42777 44.5804 4.26777 45.0097 4.32494 45.3177C4.4008 45.7126 4.35609 46.1211 4.19661 46.4902C4.02394 46.8542 3.84661 47.1704 3.69027 47.4434C3.23527 48.2496 2.54927 49.4676 3.62611 50.3764C3.87694 50.5992 4.30744 50.9376 4.70177 51.2386C4.4098 51.7516 4.27891 52.3406 4.32611 52.9291C4.3888 53.3848 4.63652 53.7946 5.01094 54.0619C5.27227 54.2474 5.54877 54.4119 5.82761 54.5659C6.51127 54.9579 6.77844 55.1399 6.87061 55.4992C6.93294 55.9745 6.88992 56.4576 6.74461 56.9144C6.67577 57.2306 6.60927 57.5362 6.56844 57.8419Z" fill="white"/>
<path id="Shape_2" d="M13.0284 20.7598L13.145 20.2546C13.3495 19.2794 13.6101 18.3169 13.9255 17.3718C14.6288 15.4243 15.7177 13.6388 17.1269 12.1218C18.6391 10.6958 20.4903 9.67949 22.5052 9.16893C22.9039 9.04722 23.2073 8.72206 23.3013 8.31594C23.3952 7.90982 23.2653 7.48444 22.9606 7.20003C22.6559 6.91562 22.2225 6.81539 21.8239 6.9371C19.4204 7.56238 17.2185 8.79631 15.4305 10.5199C13.8053 12.2665 12.5494 14.3232 11.738 16.5668C11.3883 17.602 11.1 18.6569 10.8747 19.7261L10.758 20.2313C10.6502 20.6419 10.7739 21.0786 11.0811 21.3717C11.3882 21.6647 11.8303 21.7678 12.2354 21.6409C12.6405 21.5139 12.9446 21.1769 13.0295 20.7609L13.0284 20.7598Z" fill="white"/>
<path id="Oval" d="M10.5002 25.6668C11.1445 25.6668 11.6668 25.1445 11.6668 24.5002C11.6668 23.8558 11.1445 23.3335 10.5002 23.3335C9.85583 23.3335 9.3335 23.8558 9.3335 24.5002C9.3335 25.1445 9.85583 25.6668 10.5002 25.6668Z" fill="white"/>
<path id="Shape_3" d="M59.4651 35.8564L66.2049 29.0548L66.4172 28.8331L66.4266 28.8214C66.4511 28.7958 66.4767 28.7701 66.5012 28.7433C71.2376 23.648 71.1021 15.721 66.1944 10.7906C61.3388 5.83157 53.4 5.69332 48.3747 10.4803C48.2674 10.5814 48.1612 10.6852 48.0562 10.7918C48.0481 10.7999 48.0457 10.8116 48.0376 10.8198L35.8412 23.1199C34.449 24.5288 34.449 26.7954 35.8412 28.2043C36.5045 28.8746 37.4078 29.2525 38.3507 29.2543L50.0361 41.0551C50.526 41.5543 50.526 42.3538 50.0361 42.8529C49.8053 43.0875 49.4901 43.2196 49.1611 43.2196C48.832 43.2196 48.5168 43.0875 48.2861 42.8529L34.0807 28.5193C33.6271 28.0615 32.8883 28.0581 32.4305 28.5117C31.9727 28.9653 31.9693 29.7042 32.4229 30.1619L46.6294 44.4991C47.1201 44.9984 47.1201 45.7988 46.6294 46.2981C46.1424 46.7723 45.3663 46.7723 44.8794 46.2981L26.4041 27.6501C26.3201 27.5649 26.2372 27.4786 26.1567 27.3911C22.269 23.2128 22.3803 16.7083 26.4087 12.6654C28.3653 10.6829 31.0346 9.56688 33.82 9.56688C36.6054 9.56688 39.2747 10.6829 41.2312 12.6654C41.5227 12.9698 41.9557 13.0933 42.3639 12.9885C42.7721 12.8837 43.0921 12.5669 43.2009 12.1598C43.3097 11.7526 43.1905 11.3184 42.8891 11.0239C40.4943 8.59894 37.2281 7.23401 33.82 7.23401C30.4118 7.23401 27.1456 8.59894 24.7509 11.0239C19.8425 15.9545 19.707 23.8824 24.4441 28.9778C24.4522 28.9871 24.4546 28.9988 24.4639 29.0081L24.7392 29.2858L24.7462 29.2928L43.2146 47.9314C43.8838 48.6093 44.7966 48.9908 45.7491 48.9908C46.7017 48.9908 47.6145 48.6093 48.2837 47.9314C48.9142 47.2891 49.2806 46.4335 49.3104 45.5339C50.2082 45.5016 51.06 45.1287 51.6927 44.4909C52.3234 43.8486 52.6901 42.9931 52.7206 42.0934C53.619 42.0593 54.4706 41.6838 55.1017 41.0434C55.7323 40.4015 56.0991 39.5464 56.1296 38.6471C57.0282 38.6122 57.8799 38.2369 58.5119 37.5971C58.9873 37.1183 59.3178 36.5149 59.4651 35.8564ZM37.4979 24.7638L49.9812 12.1743C54.0875 8.26465 60.5731 8.38005 64.5377 12.4333C68.5662 16.4762 68.6775 22.9806 64.7897 27.1589L64.7244 27.2266L58.9459 33.0599C58.8214 32.8718 58.6792 32.696 58.5212 32.5349L47.5697 21.4831L48.6011 20.4424C50.0802 21.8606 51.9971 22.7343 54.0377 22.9204C56.4063 22.963 58.6728 21.958 60.2316 20.1741C60.5248 19.8767 60.6371 19.4455 60.5261 19.0428C60.4152 18.6402 60.0979 18.3273 59.6937 18.2221C59.2896 18.1169 58.86 18.2352 58.5667 18.5326C57.4628 19.8205 55.8575 20.5704 54.1614 20.5906C52.3486 20.3452 50.6903 19.4386 49.5052 18.0449C49.2963 17.7873 48.9876 17.6308 48.6563 17.6145C48.3249 17.5983 48.0024 17.7238 47.7692 17.9598L45.1069 20.6501L41.7084 24.0801L39.2654 26.5453C39.0346 26.7806 38.7188 26.913 38.3892 26.9128C38.0599 26.9132 37.7444 26.7807 37.5142 26.5453C37.0303 26.0526 37.0231 25.2653 37.4979 24.7638ZM53.4486 39.4159C52.9626 39.8926 52.1845 39.8926 51.6986 39.4159L40.7319 28.3513C40.7891 28.3011 40.8486 28.2614 40.9069 28.2066L42.5181 26.5814L53.4334 37.6029L53.4439 37.6181C53.9351 38.116 53.9372 38.9155 53.4486 39.4159ZM55.1134 35.9789L44.1584 24.9224L45.9236 23.1409L56.8576 34.1753C57.3475 34.6744 57.3475 35.474 56.8576 35.9731C56.3734 36.4464 55.6007 36.449 55.1134 35.9789Z" fill="white"/>
</g>
</g>
</g>
<defs>
<clipPath id="clip0_0_282">
<rect width="70" height="70" fill="white"/>
</clipPath>
</defs>
</svg>
