<svg width="70" height="70" viewBox="0 0 70 70" fill="none" xmlns="http://www.w3.org/2000/svg">
<g id="excellence 1" clip-path="url(#clip0_0_305)">
<g id="Group">
<path id="Vector" d="M68.3869 30.6342C69.8353 29.2225 70.3467 27.1505 69.7217 25.2268C69.0967 23.3033 67.4649 21.9276 65.4634 21.6368L49.3599 19.2968C48.3093 19.1441 47.4017 18.4847 46.9318 17.5327L44.3132 12.227C44.0627 11.7193 43.4482 11.5109 42.9403 11.7615C42.4327 12.012 42.2243 12.6267 42.4748 13.1344L45.0934 18.4401C45.8619 19.9972 47.3467 21.0759 49.0651 21.3256L65.1686 23.6656C66.4109 23.8461 67.384 24.6666 67.7719 25.8604C68.1598 27.0542 67.8547 28.2901 66.9559 29.1663L55.3033 40.5247C54.0599 41.7368 53.4927 43.4823 53.7863 45.1937L56.537 61.2322C56.7492 62.4694 56.2695 63.6485 55.2541 64.3862C54.2385 65.124 52.9689 65.216 51.8579 64.6317L49.2641 63.2681V61.6026C49.2641 59.9308 47.9039 58.5705 46.232 58.5705H45.6406V53.9837C45.6409 53.1349 46.2012 51.8066 46.8163 51.1969C49.5514 48.4854 51.0022 46.1815 50.8372 41.7793C50.7088 38.3529 50.092 35.2688 49.3879 32.5721V29.8416C49.3879 27.75 47.6862 26.0484 45.5947 26.0484C44.9623 26.0484 44.366 26.2047 43.8411 26.4796C43.6327 24.3859 41.8613 22.7454 39.7136 22.7454C38.778 22.7454 37.914 23.057 37.2193 23.5815C36.5389 22.2178 35.1302 21.2784 33.5054 21.2784C31.8521 21.2784 30.4219 22.251 29.7559 23.6538C29.0461 23.0861 28.1471 22.7454 27.1696 22.7454C24.8822 22.7454 23.0213 24.6062 23.0213 26.8937V33.3035C22.8291 33.4228 22.6446 33.5558 22.4706 33.7035C20.9681 34.9802 19.8896 37.3583 19.5232 39.0277C19.271 40.1764 19.1453 41.2986 19.1493 42.3631C19.1655 46.6879 21.3988 49.7185 23.5812 52.1129C23.749 52.297 23.8414 52.5336 23.8414 52.779V58.5703H23.7672C22.0954 58.5703 20.7351 59.9305 20.7351 61.6024V63.2681L18.1417 64.6316C17.0307 65.2158 15.7611 65.124 14.7455 64.3861C13.73 63.6483 13.2504 62.4692 13.4627 61.2321L16.2134 45.1936C16.5069 43.4821 15.9397 41.7367 14.6963 40.5245L3.04383 29.1663C2.14492 28.2901 1.83986 27.0542 2.22774 25.8604C2.61563 24.6667 3.58875 23.8463 4.83098 23.6656L20.9345 21.3256C22.6529 21.0759 24.1377 19.9971 24.9063 18.4401L32.1079 3.8478C32.6636 2.72201 33.7447 2.05012 35 2.05012C36.2552 2.05012 37.3363 2.72201 37.8916 3.84725L40.379 8.89286C40.6294 9.4006 41.2439 9.60972 41.7517 9.35892C42.2594 9.10867 42.4681 8.49404 42.2179 7.9863L39.7303 2.94028C38.835 1.12661 37.0226 0 35 0C32.9773 0 31.1649 1.12661 30.2698 2.94041L23.068 17.5326C22.5981 18.4845 21.6905 19.144 20.6398 19.2967L4.53645 21.6368C2.53485 21.9276 0.903233 23.3031 0.278221 25.2268C-0.346791 27.1505 0.164644 29.2225 1.61312 30.6343L13.2657 41.9927C14.0259 42.7336 14.3726 43.8007 14.1932 44.8471L11.4422 60.8856C11.1002 62.879 11.9043 64.8558 13.5407 66.0448C15.177 67.2336 17.3057 67.3875 19.096 66.4463L20.7354 65.5845V66.9681C20.7354 68.64 22.0956 70.0003 23.7675 70.0003H28.098C28.6641 70.0003 29.1231 69.5415 29.1231 68.9752C29.1231 68.409 28.6641 67.9502 28.098 67.9502H23.7675C23.2261 67.9502 22.7855 67.5097 22.7855 66.9681V61.6026C22.7855 61.0611 23.226 60.6206 23.7675 60.6206H46.2323C46.7736 60.6206 47.2143 61.0611 47.2143 61.6026V66.9681C47.2143 67.5097 46.7738 67.9502 46.2323 67.9502H32.836C32.2699 67.9502 31.8109 68.409 31.8109 68.9752C31.8109 69.5415 32.2699 70.0003 32.836 70.0003H46.2323C47.9041 70.0003 49.2644 68.6401 49.2644 66.9681V65.5843L50.9042 66.4465C51.683 66.8558 52.5254 67.0581 53.3639 67.0581C54.453 67.0579 55.535 66.7167 56.4595 66.0451C58.0959 64.8561 58.8999 62.8793 58.558 60.8859L55.8069 44.8471C55.6274 43.8007 55.9741 42.7336 56.7343 41.9927L68.3869 30.6342ZM43.8619 29.6549C43.9554 28.7813 44.6966 28.0985 45.5947 28.0985C46.5559 28.0985 47.3378 28.8805 47.3378 29.8416V36.2422C47.3378 37.2033 46.5558 37.9854 45.5947 37.9854C44.6336 37.9854 43.8515 37.2033 43.8515 36.2422L43.8619 29.6549ZM37.6538 26.5001C37.8387 25.5308 38.6914 24.7955 39.7136 24.7955C40.8705 24.7955 41.8118 25.7368 41.8118 26.8937L41.8014 34.3194C41.6984 35.3808 40.8016 36.2134 39.7136 36.2134C39.335 36.2134 38.9813 36.1101 38.6747 35.9333C38.7953 35.4237 38.8251 34.8749 38.7585 34.2868C38.6809 33.5998 38.2434 33.0359 37.649 32.7721C37.6502 32.7305 37.6538 26.5001 37.6538 26.5001ZM31.4072 25.4266C31.4072 24.2697 32.3485 23.3284 33.5054 23.3284C34.6624 23.3284 35.6036 24.2697 35.6036 25.4266L35.5654 32.6101H31.4073V25.4266H31.4072ZM25.0714 26.8936C25.0714 25.7366 26.0126 24.7953 27.1696 24.7953C28.3265 24.7953 29.2678 25.7366 29.2678 26.8936V32.61H25.4476C25.3216 32.61 25.1963 32.6157 25.0715 32.626V26.8936H25.0714ZM43.5906 53.9835V58.5705H25.8917C25.8917 58.5705 25.8917 52.889 25.8917 52.7792C25.8917 52.0216 25.6093 51.2945 25.0965 50.7319C23.1771 48.6263 21.2131 45.9844 21.1995 42.3555C21.1961 41.4413 21.3059 40.4694 21.5258 39.4672C21.8226 38.1144 22.72 36.1821 23.7978 35.2662C24.2582 34.8756 24.8441 34.6604 25.4478 34.6604H36.735C36.8036 35.5765 36.4967 36.2153 35.7262 36.7766C34.0384 38.0063 31.3148 37.6975 29.8516 37.5319C29.6181 37.5054 29.4164 37.4826 29.2457 37.469C28.5264 37.4108 27.7152 37.5549 27.3741 38.2695C27.1445 38.7506 27.2039 39.3118 27.5296 39.7347C27.9127 40.2322 28.4613 40.5096 28.9024 40.9367C29.2289 41.253 29.4999 41.6331 29.7324 42.0219C30.3716 43.0909 30.7263 44.3571 30.5768 45.6051C30.5094 46.1671 30.9105 46.6775 31.4727 46.7448C32.0341 46.8122 32.5451 46.4111 32.6122 45.8488C32.9271 43.2189 31.6569 40.8829 30.5217 39.6626C32.2894 39.8202 34.9749 39.8603 36.9335 38.4333C37.2268 38.2196 37.4835 37.9889 37.7077 37.7433C38.3027 38.0737 38.9863 38.2632 39.7137 38.2632C40.5728 38.2632 41.3718 38.0007 42.0347 37.5516C42.5691 38.9998 43.9632 40.0354 45.5948 40.0354C46.7684 40.0354 47.8192 39.4995 48.5155 38.6597C48.6499 39.69 48.7475 40.7548 48.7889 41.8563C48.9135 45.1802 48.1155 47.0226 45.3733 49.741C44.374 50.7315 43.591 52.5946 43.5906 53.9835Z" fill="white"/>
</g>
</g>
<defs>
<clipPath id="clip0_0_305">
<rect width="70" height="70" fill="white"/>
</clipPath>
</defs>
</svg>
