<svg width="70" height="70" viewBox="0 0 70 70" fill="none" xmlns="http://www.w3.org/2000/svg">
<g id="mindset 1">
<path id="Vector" d="M6.5625 52.3899V53.5938C6.56415 55.0436 7.14085 56.4337 8.16608 57.4589C9.19131 58.4842 10.5814 59.0609 12.0312 59.0625H13.125V66.7188C13.125 67.0088 13.2402 67.287 13.4454 67.4921C13.6505 67.6973 13.9287 67.8125 14.2188 67.8125H19.6875C19.9776 67.8125 20.2558 67.6973 20.4609 67.4921C20.666 67.287 20.7812 67.0088 20.7812 66.7188V62.7635L30.0183 52.5H44.8438C46.2936 52.4984 47.6837 51.9217 48.7089 50.8964C49.7342 49.8712 50.3109 48.4811 50.3125 47.0312V44.5246C50.3125 39.6779 48.3871 35.0296 44.96 31.6025C41.5328 28.1753 36.8846 26.25 32.0379 26.25H20.4621C18.0623 26.25 15.6859 26.7227 13.4687 27.641C11.2516 28.5594 9.23698 29.9055 7.54002 31.6025C5.84306 33.2994 4.49696 35.314 3.57857 37.5312C2.66019 39.7484 2.1875 42.1247 2.1875 44.5246V47.0312C2.18914 48.2914 2.62518 49.5124 3.42213 50.4886C4.21907 51.4647 5.32817 52.1362 6.5625 52.3899ZM8.75 53.5938V52.5H19.6875V54.2345L17.047 56.875H12.0312C11.1613 56.874 10.3273 56.528 9.71214 55.9129C9.097 55.2977 8.75098 54.4637 8.75 53.5938ZM18.8745 61.6121C18.6938 61.8129 18.5937 62.0736 18.5938 62.3438V65.625H15.3125V59.0625H17.5C17.7901 59.0625 18.0683 58.9473 18.2734 58.7421L21.5547 55.4609C21.7598 55.2558 21.875 54.9776 21.875 54.6875V52.5H27.0754L18.8745 61.6121ZM9.4354 32.8125H12.672L15.6328 35.7734L17.1797 34.2266L13.8984 30.9454C13.6933 30.7402 13.4151 30.625 13.125 30.625H12.3666C14.824 29.1923 17.6176 28.4375 20.4621 28.4375H20.7812V31.7188C20.7812 32.0088 20.8965 32.287 21.1016 32.4921L25.4766 36.8671L27.0234 35.3204L22.9688 31.2657V28.4375H32.0379C35.0255 28.4369 37.9542 29.2689 40.4953 30.8401C40.8014 31.0292 41.1001 31.2282 41.3913 31.4369L38.2813 34.547L34.6797 30.9454C34.4746 30.7402 34.1964 30.625 33.9062 30.625H28.4375V32.8125H33.4532L35.6407 35H30.625V37.1875H38.2812C38.5714 37.1875 38.8496 37.0723 39.0547 36.8671L43.0879 32.8339C44.6789 34.3372 45.9463 36.1494 46.8124 38.1597C47.6785 40.1699 48.1252 42.3357 48.125 44.5246V47.0312C48.124 47.9012 47.778 48.7352 47.1628 49.3503C46.5477 49.9655 45.7137 50.3115 44.8438 50.3125H43.1093L41.2215 48.4246L44.2392 46.9158C44.4209 46.8249 44.5737 46.6853 44.6804 46.5125C44.7872 46.3397 44.8438 46.1406 44.8438 45.9375V40.4688H42.6562V45.2615L39.591 46.7942L37.9609 45.1641C37.7558 44.959 37.4776 44.8438 37.1875 44.8438H32.8125V47.0312H36.7345L40.0157 50.3125H29.5312V44.8438C29.5313 44.5537 29.416 44.2755 29.2109 44.0704L25.9297 40.7891L24.3828 42.3359L27.3438 45.2968V50.3125H11.7756L13.7442 47.0312H20.7812V44.8438H17.5V42.0882L22.5582 38.0416L21.1918 36.3334L15.7231 40.7084C15.5949 40.8109 15.4915 40.9408 15.4205 41.0887C15.3494 41.2365 15.3125 41.3985 15.3125 41.5625V44.8438H13.125C12.9361 44.8438 12.7505 44.8927 12.5861 44.9857C12.4217 45.0788 12.2843 45.2128 12.1871 45.3747L9.22441 50.3125H7.65625C6.78631 50.3115 5.95229 49.9655 5.33715 49.3503C4.72202 48.7352 4.376 47.9012 4.375 47.0312V44.5246C4.375 44.2663 4.38288 44.008 4.39549 43.75H8.75C8.91981 43.75 9.08729 43.7105 9.23917 43.6345C9.39105 43.5586 9.52316 43.4483 9.62505 43.3125L12.9063 38.9375L11.1562 37.625L8.20312 41.5625H4.65378C5.27724 38.2118 6.95212 35.1469 9.4354 32.8125Z" fill="white"/>
<path id="Vector_2" d="M67.8125 19.6875H64.5143C64.4462 19.6875 64.38 19.665 64.3259 19.6235C64.2719 19.582 64.233 19.5238 64.2154 19.458C64.1978 19.3922 64.2023 19.3224 64.2284 19.2595C64.2545 19.1965 64.3006 19.1439 64.3596 19.1098L67.2158 17.4607C67.3402 17.3889 67.4492 17.2933 67.5367 17.1794C67.6241 17.0654 67.6883 16.9354 67.7254 16.7966C67.7626 16.6579 67.7721 16.5132 67.7533 16.3708C67.7346 16.2284 67.6879 16.091 67.6161 15.9667L64.3349 10.2833C64.2631 10.159 64.1674 10.0499 64.0535 9.96248C63.9396 9.87504 63.8095 9.8109 63.6708 9.77373C63.532 9.73655 63.3873 9.72707 63.2449 9.74582C63.1025 9.76457 62.9652 9.81118 62.8408 9.883L59.9846 11.5321C59.9255 11.5662 59.8569 11.5799 59.7893 11.571C59.7218 11.5621 59.659 11.5311 59.6108 11.4829C59.5626 11.4347 59.5317 11.372 59.5228 11.3044C59.5139 11.2368 59.5276 11.1682 59.5617 11.1092L61.2108 8.25293C61.3558 8.0017 61.3951 7.70315 61.32 7.42295C61.2449 7.14276 61.0616 6.90387 60.8103 6.75883L55.1272 3.47758C55.0028 3.40575 54.8655 3.35913 54.7231 3.34038C54.5807 3.32162 54.436 3.3311 54.2972 3.36828C54.1585 3.40546 54.0284 3.4696 53.9145 3.55704C53.8005 3.64449 53.7049 3.75352 53.6331 3.87792L51.9838 6.73433C51.9498 6.79334 51.8972 6.83945 51.8342 6.86551C51.7712 6.89158 51.7014 6.89614 51.6356 6.87849C51.5698 6.86084 51.5117 6.82197 51.4702 6.7679C51.4287 6.71383 51.4062 6.64759 51.4062 6.57945V3.28125C51.4062 2.99117 51.291 2.71297 51.0859 2.50786C50.8808 2.30274 50.6026 2.1875 50.3125 2.1875H43.75C43.4599 2.1875 43.1817 2.30274 42.9766 2.50786C42.7715 2.71297 42.6563 2.99117 42.6562 3.28125V6.57945C42.6562 6.64761 42.6338 6.71386 42.5923 6.76792C42.5508 6.82199 42.4926 6.86086 42.4268 6.87849C42.3609 6.89612 42.2911 6.89154 42.2282 6.86545C42.1652 6.83936 42.1126 6.79323 42.0785 6.7342L40.4294 3.87792C40.3576 3.75353 40.262 3.6445 40.148 3.55705C40.0341 3.46961 39.904 3.40547 39.7653 3.36829C39.6265 3.33111 39.4818 3.32163 39.3394 3.34038C39.197 3.35913 39.0597 3.40575 38.9353 3.47758L33.2522 6.75883C33.0009 6.90387 32.8176 7.14276 32.7425 7.42295C32.6675 7.70314 32.7067 8.00169 32.8518 8.25292L34.5009 11.1093C34.535 11.1683 34.5486 11.2369 34.5397 11.3045C34.5308 11.372 34.4998 11.4347 34.4516 11.4829C34.4034 11.5311 34.3407 11.562 34.2731 11.5709C34.2056 11.5798 34.137 11.5662 34.0779 11.5321L31.2217 9.883C31.0973 9.81118 30.96 9.76456 30.8176 9.74581C30.6752 9.72706 30.5305 9.73654 30.3917 9.77372C30.253 9.8109 30.123 9.87504 30.009 9.96248C29.8951 10.0499 29.7995 10.1589 29.7276 10.2833L26.4464 15.9667C26.3746 16.091 26.3279 16.2283 26.3092 16.3708C26.2904 16.5132 26.2999 16.6579 26.3371 16.7966C26.3742 16.9353 26.4384 17.0654 26.5258 17.1794C26.6133 17.2933 26.7223 17.3889 26.8467 17.4607L29.7029 19.1098C29.762 19.1439 29.8081 19.1965 29.8342 19.2595C29.8602 19.3224 29.8648 19.3922 29.8472 19.458C29.8295 19.5239 29.7907 19.582 29.7366 19.6235C29.6826 19.665 29.6163 19.6875 29.5482 19.6875H26.25C25.9599 19.6875 25.6817 19.8027 25.4766 20.0079C25.2715 20.213 25.1563 20.4912 25.1562 20.7812V24.0625H27.3438V21.875H29.5482C30.0979 21.875 30.6322 21.6936 31.0683 21.359C31.5044 21.0244 31.8179 20.5552 31.9602 20.0242C32.1024 19.4933 32.0655 18.9302 31.8552 18.4223C31.6448 17.9145 31.2727 17.4903 30.7967 17.2154L28.8876 16.1132L31.0751 12.3243L32.9842 13.4265C33.4603 13.7014 34.0137 13.8115 34.5587 13.7397C35.1037 13.668 35.6098 13.4184 35.9985 13.0297C36.3872 12.641 36.6367 12.1349 36.7085 11.5899C36.7803 11.0449 36.6702 10.4915 36.3954 10.0154L35.2931 8.10639L39.0819 5.91889L40.1841 7.82781C40.4589 8.30391 40.8831 8.67601 41.391 8.88641C41.8988 9.09682 42.4619 9.13375 42.9929 8.9915C43.5239 8.84924 43.9931 8.53575 44.3277 8.09963C44.6624 7.66352 44.8438 7.12916 44.8438 6.57945V4.375H49.2188V6.57945C49.2187 7.12914 49.4001 7.66348 49.7347 8.09958C50.0694 8.53568 50.5385 8.84918 51.0695 8.99145C51.6005 9.13372 52.1635 9.0968 52.6714 8.88644C53.1792 8.67607 53.6034 8.304 53.8783 7.82795L54.9806 5.91889L58.7694 8.10639L57.6673 10.0154C57.3924 10.4914 57.2823 11.0449 57.354 11.5899C57.4257 12.1349 57.6753 12.641 58.064 13.0297C58.4527 13.4184 58.9588 13.668 59.5038 13.7398C60.0488 13.8115 60.6022 13.7014 61.0783 13.4265L62.9874 12.3243L65.1749 16.1132L63.2658 17.2154C62.7898 17.4903 62.4177 17.9145 62.2074 18.4223C61.997 18.9302 61.9601 19.4932 62.1024 20.0242C62.2446 20.5551 62.5581 21.0243 62.9942 21.359C63.4303 21.6936 63.9646 21.875 64.5143 21.875H66.7188V26.25H63.4375C63.1967 26.25 62.9627 26.3294 62.7716 26.476C62.5806 26.6226 62.4433 26.8281 62.381 27.0607L62.1024 28.1006C61.9606 28.6316 61.9978 29.1945 62.2081 29.7023C62.4184 30.21 62.7901 30.6343 63.2658 30.9096L65.1749 32.0118L62.9874 35.8007L61.0783 34.6985C60.6022 34.4236 60.0488 34.3135 59.5038 34.3853C58.9588 34.457 58.4527 34.7066 58.064 35.0953C57.6754 35.484 57.4258 35.9901 57.354 36.5351C57.2822 37.0801 57.3923 37.6335 57.6671 38.1096L58.7694 40.0186L54.9806 42.2061L54.5409 41.4447L52.6466 42.5384L53.6331 44.2471C53.7049 44.3715 53.8005 44.4806 53.9144 44.5681C54.0284 44.6556 54.1584 44.7197 54.2972 44.7569C54.4359 44.7941 54.5807 44.8035 54.7231 44.7848C54.8655 44.766 55.0028 44.7193 55.1272 44.6474L60.8103 41.3662C61.0616 41.2211 61.2449 40.9822 61.32 40.702C61.3951 40.4218 61.3558 40.1233 61.2108 39.8721L59.5616 37.0157C59.5275 36.9567 59.5139 36.8881 59.5228 36.8205C59.5317 36.753 59.5627 36.6902 59.6109 36.6421C59.6591 36.5939 59.7218 36.563 59.7894 36.5541C59.8569 36.5452 59.9255 36.5588 59.9846 36.5929L62.8408 38.242C62.9652 38.3138 63.1025 38.3604 63.2449 38.3792C63.3873 38.3979 63.532 38.3885 63.6708 38.3513C63.8095 38.3141 63.9396 38.25 64.0535 38.1625C64.1674 38.0751 64.2631 37.966 64.3349 37.8417L67.6161 32.1583C67.6879 32.034 67.7346 31.8966 67.7533 31.7542C67.7721 31.6118 67.7626 31.4671 67.7254 31.3284C67.6883 31.1896 67.6241 31.0596 67.5367 30.9456C67.4492 30.8317 67.3402 30.7361 67.2158 30.6643L64.3596 29.0152C64.3006 28.981 64.2545 28.9284 64.2284 28.8655C64.2024 28.8025 64.1978 28.7328 64.2154 28.6669L64.2768 28.4375H67.8125C68.1026 28.4375 68.3808 28.3223 68.5859 28.1171C68.791 27.912 68.9062 27.6338 68.9062 27.3438V20.7812C68.9062 20.4912 68.791 20.213 68.5859 20.0079C68.3808 19.8027 68.1026 19.6875 67.8125 19.6875Z" fill="white"/>
<path id="Vector_3" d="M47.0313 16.4062C45.9182 16.407 44.8186 16.6503 43.8091 17.1193C42.7996 17.5882 41.9043 18.2714 41.1857 19.1214C40.4671 19.9715 39.9423 20.9679 39.6479 22.0413C39.3535 23.1148 39.2965 24.2395 39.4809 25.3372L41.6382 24.9753C41.5878 24.6736 41.5625 24.3683 41.5625 24.0625C41.5627 23.02 41.8609 21.9992 42.422 21.1205C42.983 20.2418 43.7836 19.5418 44.7293 19.1029C45.6749 18.6641 46.7264 18.5047 47.7596 18.6436C48.7929 18.7824 49.7649 19.2137 50.5612 19.8867C51.3575 20.5596 51.9448 21.4461 52.254 22.4418C52.5632 23.4374 52.5813 24.5007 52.3063 25.5063C52.0312 26.5119 51.4745 27.418 50.7016 28.1177C49.9288 28.8174 48.972 29.2816 47.9441 29.4556L48.3059 31.6129C50.199 31.2932 51.9029 30.2739 53.0799 28.7571C54.2569 27.2403 54.8211 25.3367 54.6607 23.4235C54.5004 21.5103 53.6271 19.7272 52.214 18.4275C50.8009 17.1278 48.9512 16.4064 47.0313 16.4062Z" fill="white"/>
</g>
</svg>
