<svg width="81" height="66" viewBox="0 0 81 66" fill="none" xmlns="http://www.w3.org/2000/svg">
<g id="Venturastic__AI_ 1" clip-path="url(#clip0_0_780)">
<g id="Group 2">
<g id="Group">
<g id="Group_2">
<path id="Vector" d="M1.24594 59.2577H3.09928C4.58435 59.2577 5.58781 60.2494 5.58781 61.635C5.58781 63.0206 4.58435 64.0124 3.09928 64.0124H1.24594V59.2577ZM3.07261 63.6998C4.39714 63.6998 5.24675 62.8438 5.24675 61.6348C5.24675 60.4262 4.39714 59.5702 3.07261 59.5702H1.58727V63.6996H3.07261V63.6998Z" fill="#009DC4"/>
<path id="Vector_2" d="M7.18677 59.3328C7.18677 59.1834 7.3073 59.0544 7.46117 59.0544C7.61504 59.0544 7.73557 59.1762 7.73557 59.3256C7.73557 59.4818 7.61504 59.6045 7.46117 59.6045C7.3073 59.6045 7.18677 59.4821 7.18677 59.3328ZM7.29397 60.4669H7.62837V64.0123H7.29397V60.4669Z" fill="#009DC4"/>
<path id="Vector_3" d="M12.4721 60.467L10.8935 64.0124H10.5521L8.97986 60.467H9.33453L10.726 63.6388L12.1311 60.467H12.4721Z" fill="#009DC4"/>
<path id="Vector_4" d="M16.6803 62.3212H13.6765C13.7099 63.1636 14.3189 63.7342 15.1549 63.7342C15.5965 63.7342 16.0045 63.5708 16.2723 63.238L16.4661 63.4622C16.1584 63.8425 15.6768 64.0393 15.148 64.0393C14.0909 64.0393 13.3483 63.2924 13.3483 62.2396C13.3483 61.1868 14.0643 60.4398 15.0211 60.4398C15.9776 60.4398 16.6869 61.1732 16.6869 62.226C16.6869 62.2532 16.6803 62.287 16.6803 62.3212ZM13.6829 62.0564H16.3592C16.3123 61.2889 15.7637 60.7388 15.0211 60.7388C14.2787 60.7388 13.7368 61.282 13.6829 62.0564Z" fill="#009DC4"/>
<path id="Vector_5" d="M20.0054 60.4402V60.773C19.9788 60.773 19.9521 60.7661 19.9249 60.7661C19.1489 60.7661 18.6873 61.2893 18.6873 62.1655V64.0127H18.3529V60.4674H18.674V61.2418C18.8881 60.7253 19.3497 60.4402 20.0054 60.4402Z" fill="#009DC4"/>
<path id="Vector_6" d="M21.0759 63.5847L21.2297 63.313C21.4972 63.5439 21.9721 63.7407 22.4876 63.7407C23.2233 63.7407 23.5177 63.4759 23.5177 63.0751C23.5177 62.0429 21.2031 62.8034 21.2031 61.4114C21.2031 60.8749 21.6444 60.4402 22.5276 60.4402C22.9692 60.4402 23.4508 60.5762 23.7252 60.7863L23.5713 61.0581C23.2769 60.8407 22.8956 60.7389 22.5209 60.7389C21.8388 60.7389 21.5377 61.0242 21.5377 61.4045C21.5377 62.4706 23.8524 61.7167 23.8524 63.0682C23.8524 63.6458 23.3641 64.0394 22.4743 64.0394C21.8988 64.0394 21.3503 63.8426 21.0759 63.5847Z" fill="#009DC4"/>
<path id="Vector_7" d="M25.3104 59.3328C25.3104 59.1834 25.431 59.0544 25.5848 59.0544C25.7387 59.0544 25.8592 59.1762 25.8592 59.3256C25.8592 59.4818 25.7387 59.6045 25.5848 59.6045C25.431 59.6045 25.3104 59.4821 25.3104 59.3328ZM25.4176 60.4669H25.752V64.0123H25.4176V60.4669Z" fill="#009DC4"/>
<path id="Vector_8" d="M29.5254 63.7879C29.3516 63.9577 29.0705 64.0391 28.8097 64.0391C28.1942 64.0391 27.8596 63.6724 27.8596 63.0748V60.759H27.2172V60.4668H27.8596V59.6924H28.194V60.4668H29.3044V60.759H28.194V63.0409C28.194 63.4961 28.4145 63.7473 28.8428 63.7473C29.0502 63.7473 29.2441 63.6793 29.3849 63.5505L29.5254 63.7879Z" fill="#009DC4"/>
<path id="Vector_9" d="M33.8206 60.467L32.0278 64.4945C31.7467 65.1465 31.3987 65.3574 30.9371 65.3574C30.623 65.3574 30.3283 65.2486 30.1278 65.0382L30.295 64.7798C30.4758 64.9702 30.6833 65.0582 30.9441 65.0582C31.2654 65.0582 31.4995 64.9089 31.7134 64.4268L31.9009 63.999L30.3286 60.467H30.6833L32.0814 63.6388L33.4795 60.467H33.8206Z" fill="#009DC4"/>
<path id="Vector_10" d="M37.4199 59.3328C37.4199 59.1834 37.5404 59.0544 37.6943 59.0544C37.8481 59.0544 37.9687 59.1762 37.9687 59.3256C37.9687 59.4818 37.8481 59.6045 37.6943 59.6045C37.5404 59.6045 37.4199 59.4821 37.4199 59.3328ZM37.5271 60.4669H37.8615V64.0123H37.5271V60.4669Z" fill="#009DC4"/>
<path id="Vector_11" d="M43.0264 61.9409V64.0123H42.6918V61.9678C42.6918 61.1665 42.2707 60.7452 41.5611 60.7452C40.7382 60.7452 40.2366 61.2817 40.2366 62.1241V64.0121H39.9022V60.4668H40.2232V61.2342C40.4576 60.7385 40.9459 60.4398 41.6083 60.4398C42.4579 60.4401 43.0264 60.9492 43.0264 61.9409Z" fill="#009DC4"/>
<path id="Vector_12" d="M51.2281 59.2577L49.1406 64.0121H48.7993L46.7119 59.2577H47.0865L48.9801 63.5641L50.8732 59.2577H51.2281Z" fill="#009DC4"/>
<path id="Vector_13" d="M55.1891 62.3212H52.1849C52.2185 63.1636 52.8273 63.7342 53.6638 63.7342C54.1049 63.7342 54.5131 63.5708 54.7809 63.238L54.9747 63.4622C54.667 63.8425 54.1854 64.0393 53.6566 64.0393C52.5998 64.0393 51.8569 63.2924 51.8569 62.2396C51.8569 61.1868 52.5729 60.4398 53.5297 60.4398C54.4865 60.4398 55.1955 61.1732 55.1955 62.226C55.1958 62.2532 55.1891 62.287 55.1891 62.3212ZM52.1918 62.0564H54.8678C54.8209 61.2889 54.2723 60.7388 53.5297 60.7388C52.787 60.7388 52.2454 61.282 52.1918 62.0564Z" fill="#009DC4"/>
<path id="Vector_14" d="M59.9857 61.9409V64.0123H59.6511V61.9678C59.6511 61.1665 59.23 60.7452 58.5204 60.7452C57.6975 60.7452 57.1959 61.2817 57.1959 62.1241V64.0121H56.8612V60.4668H57.1825V61.2342C57.4169 60.7385 57.9049 60.4398 58.5676 60.4398C59.4172 60.4401 59.9857 60.9492 59.9857 61.9409Z" fill="#009DC4"/>
<path id="Vector_15" d="M63.7254 63.7879C63.551 63.9577 63.2702 64.0391 63.0094 64.0391C62.3939 64.0391 62.059 63.6724 62.059 63.0748V60.759H61.4169V60.4668H62.059V59.6924H62.3937V60.4668H63.5043V60.759H62.3937V63.0409C62.3937 63.4961 62.6145 63.7473 63.0427 63.7473C63.2502 63.7473 63.4441 63.6793 63.5843 63.5505L63.7254 63.7879Z" fill="#009DC4"/>
<path id="Vector_16" d="M68.3415 60.467V64.0124H68.0201V63.2513C67.7927 63.7476 67.3177 64.0393 66.702 64.0393C65.8121 64.0393 65.2436 63.5302 65.2436 62.5385V60.467H65.5783V62.5116C65.5783 63.3129 65.9993 63.7342 66.7289 63.7342C67.5183 63.7342 68.0065 63.1977 68.0065 62.3553V60.4673H68.3415V60.467Z" fill="#009DC4"/>
<path id="Vector_17" d="M72.0414 60.4402V60.773C72.0145 60.773 71.9881 60.7661 71.9609 60.7661C71.1849 60.7661 70.7233 61.2893 70.7233 62.1655V64.0127H70.3886V60.4674H70.7099V61.2418C70.9241 60.7253 71.3857 60.4402 72.0414 60.4402Z" fill="#009DC4"/>
<path id="Vector_18" d="M76.5105 62.3212H73.5062C73.5398 63.1636 74.1486 63.7342 74.9852 63.7342C75.4262 63.7342 75.8345 63.5708 76.1022 63.238L76.2961 63.4622C75.9884 63.8425 75.5068 64.0393 74.978 64.0393C73.9212 64.0393 73.1782 63.2924 73.1782 62.2396C73.1782 61.1868 73.8942 60.4398 74.851 60.4398C75.8078 60.4398 76.5169 61.1732 76.5169 62.226C76.5169 62.2532 76.5105 62.287 76.5105 62.3212ZM73.5132 62.0564H76.1892C76.1422 61.2889 75.5937 60.7388 74.851 60.7388C74.1084 60.7388 73.5668 61.282 73.5132 62.0564Z" fill="#009DC4"/>
<path id="Vector_19" d="M77.6676 63.5847L77.8215 63.313C78.0892 63.5439 78.5644 63.7407 79.0796 63.7407C79.8156 63.7407 80.1097 63.4759 80.1097 63.0751C80.1097 62.0429 77.7951 62.8034 77.7951 61.4114C77.7951 60.8749 78.2367 60.4402 79.1196 60.4402C79.5612 60.4402 80.0428 60.5762 80.3172 60.7863L80.1633 61.0581C79.8689 60.8407 79.4879 60.7389 79.1132 60.7389C78.4308 60.7389 78.1295 61.0242 78.1295 61.4045C78.1295 62.4706 80.4441 61.7167 80.4441 63.0682C80.4441 63.6458 79.9559 64.0394 79.0663 64.0394C78.4905 64.0394 77.942 63.8426 77.6676 63.5847Z" fill="#009DC4"/>
</g>
<g id="Group_3">
<g id="Group_4">
<path id="Vector_20" d="M8.05954 50.0942L5.14061 56.8377H3.59928L0.689941 50.0942H2.37581L4.42781 54.9113L6.50888 50.0942H8.05954Z" fill="white"/>
<path id="Vector_21" d="M14.747 55.5852V56.8377H9.52539V50.0942H14.6214V51.3468H11.0763V52.8108H14.2073V54.0249H11.0763V55.5852H14.747Z" fill="white"/>
<path id="Vector_22" d="M23.0815 50.0942V56.8377H21.8001L18.438 52.7433V56.8377H16.8967V50.0942H18.1873L21.5399 54.1886V50.0942H23.0815Z" fill="white"/>
<path id="Vector_23" d="M26.9846 51.3657H24.8267V50.0942H30.7032V51.3657H28.5454V56.8377H26.9849V51.3657H26.9846Z" fill="white"/>
<path id="Vector_24" d="M32.275 53.8701V50.0939H33.8355V53.8125C33.8355 55.0936 34.3944 55.6237 35.3384 55.6237C36.2923 55.6237 36.8414 55.0936 36.8414 53.8125V50.0939H38.3827V53.8701C38.3827 55.8546 37.2462 56.9528 35.3288 56.9528C33.4115 56.9528 32.275 55.8546 32.275 53.8701Z" fill="white"/>
<path id="Vector_25" d="M45.1276 56.8377L43.8273 54.959H43.7503H42.3919V56.8377H40.8316V50.0942H43.7505C45.5519 50.0942 46.6791 51.0286 46.6791 52.5414C46.6791 53.5526 46.1684 54.2948 45.2916 54.6702L46.8039 56.8377H45.1276ZM43.6639 51.3657H42.3919V53.7164H43.6639C44.6169 53.7164 45.0985 53.2732 45.0985 52.5412C45.0985 51.7993 44.6169 51.3657 43.6639 51.3657Z" fill="white"/>
<path id="Vector_26" d="M53.2601 55.3925H50.1294L49.5318 56.8373H47.9326L50.9385 50.0939H52.4798L55.495 56.8373H53.8572L53.2601 55.3925ZM52.7689 54.2075L51.6993 51.6259L50.63 54.2075H52.7689Z" fill="white"/>
<path id="Vector_27" d="M56.5756 56.1732L57.1052 54.9974C57.6737 55.4116 58.5217 55.7009 59.3305 55.7009C60.2553 55.7009 60.631 55.3926 60.631 54.9785C60.631 53.7164 56.7105 54.5833 56.7105 52.0785C56.7105 50.9324 57.6353 49.9785 59.5524 49.9785C60.4004 49.9785 61.267 50.1809 61.8932 50.5756L61.4116 51.7606C60.7854 51.4038 60.1401 51.2305 59.543 51.2305C58.6177 51.2305 58.2614 51.5772 58.2614 52.0014C58.2614 53.2441 62.1825 52.3868 62.1825 54.8622C62.1825 55.9894 61.2476 56.9526 59.3212 56.9526C58.2518 56.9532 57.1726 56.6353 56.5756 56.1732Z" fill="white"/>
<path id="Vector_28" d="M65.4591 51.3657H63.3012V50.0942H69.178V51.3657H67.0201V56.8377H65.4593V51.3657H65.4591Z" fill="white"/>
<path id="Vector_29" d="M70.9225 50.0942H72.4833V56.8377H70.9225V50.0942Z" fill="white"/>
<path id="Vector_30" d="M74.5649 53.4662C74.5649 51.4332 76.1257 49.9788 78.2257 49.9788C79.3913 49.9788 80.3641 50.4025 81.0001 51.1734L79.9983 52.0982C79.5452 51.5777 78.9769 51.3084 78.3025 51.3084C77.0404 51.3084 76.1447 52.1942 76.1447 53.4662C76.1447 54.7377 77.0404 55.6241 78.3025 55.6241C78.9769 55.6241 79.5452 55.3542 79.9983 54.8241L81.0001 55.7489C80.3641 56.5294 79.3913 56.9529 78.2161 56.9529C76.1257 56.9531 74.5649 55.4987 74.5649 53.4662Z" fill="white"/>
</g>
</g>
</g>
<g id="Group_5">
<g id="Group_6">
<path id="Vector_31" d="M42.6987 39.9714L59.6889 1.00262H60.6907L43.1889 41.1226L42.6987 39.9714Z" fill="#009DC4"/>
<path id="Vector_32" d="M41.1638 38.948L57.6902 1.00239L58.7294 0.994385L41.6542 40.0989L41.1638 38.948Z" fill="#009DC4"/>
<path id="Vector_33" d="M39.6288 37.9245L55.7238 0.994385L56.739 1.00239L40.1192 39.0757L39.6288 37.9245Z" fill="#009DC4"/>
<path id="Vector_34" d="M43.871 42.4213L61.5433 1.00262H62.5028L44.3326 43.7232L43.871 42.4213Z" fill="#009DC4"/>
<path id="Vector_35" d="M45.0035 44.7386L63.5261 1.00262H64.5176L45.5072 45.9136L45.0035 44.7386Z" fill="#009DC4"/>
</g>
<path id="Vector_36" d="M17.0129 1.00275L27.1049 1.01368L45.5073 45.9137L35.8345 45.919L17.0129 1.00275Z" fill="white"/>
<g id="Group_7">
<path id="Vector_37" d="M41.2502 15.6732L39.3566 19.6831L41.3385 24.798L43.2761 19.7242L41.2502 15.6732Z" fill="#009DC4"/>
<path id="Vector_38" d="M37.0225 19.7242L38.8724 20.0514L40.942 25.4119L37.0225 19.7242Z" fill="white"/>
<path id="Vector_39" d="M45.6982 19.7242L43.8486 20.0514L41.7787 25.4119L45.6982 19.7242Z" fill="white"/>
<path id="Vector_40" d="M37.595 16.8188L36.8025 18.9466L38.5638 19.2332L37.595 16.8188Z" fill="#009DC4"/>
<path id="Vector_41" d="M45.1697 16.8188L45.9625 18.9466L44.2009 19.2332L45.1697 16.8188Z" fill="#009DC4"/>
<path id="Vector_42" d="M38.0355 16.2872L40.8979 15.1413L39.0923 18.9466L38.0355 16.2872Z" fill="white"/>
<path id="Vector_43" d="M44.5972 16.2872L41.7348 15.1413L43.5404 18.9466L44.5972 16.2872Z" fill="white"/>
</g>
</g>
</g>
</g>
<defs>
<clipPath id="clip0_0_780">
<rect width="81.0001" height="66" fill="white"/>
</clipPath>
</defs>
</svg>
