<svg width="81" height="66" viewBox="0 0 81 66" fill="none" xmlns="http://www.w3.org/2000/svg">
<g id="Venturastic__AI_ 1" clip-path="url(#clip0_0_1131)">
<g id="Group 2">
<g id="Group">
<g id="Group_2">
<path id="Vector" d="M1.24609 59.2577H3.09943C4.5845 59.2577 5.58797 60.2494 5.58797 61.635C5.58797 63.0206 4.5845 64.0124 3.09943 64.0124H1.24609V59.2577ZM3.07276 63.6998C4.3973 63.6998 5.2469 62.8438 5.2469 61.6348C5.2469 60.4262 4.3973 59.5702 3.07276 59.5702H1.58743V63.6996H3.07276V63.6998Z" fill="#009DC4"/>
<path id="Vector_2" d="M7.18701 59.3328C7.18701 59.1835 7.30755 59.0544 7.46141 59.0544C7.61528 59.0544 7.73582 59.1763 7.73582 59.3256C7.73582 59.4819 7.61528 59.6046 7.46141 59.6046C7.30755 59.6046 7.18701 59.4822 7.18701 59.3328ZM7.29421 60.467H7.62861V64.0123H7.29421V60.467Z" fill="#009DC4"/>
<path id="Vector_3" d="M12.4722 60.467L10.8936 64.0124H10.5522L8.97998 60.467H9.33465L10.7261 63.6388L12.1312 60.467H12.4722Z" fill="#009DC4"/>
<path id="Vector_4" d="M16.6806 62.3213H13.6769C13.7102 63.1637 14.3193 63.7343 15.1553 63.7343C15.5969 63.7343 16.0049 63.5709 16.2726 63.2381L16.4665 63.4623C16.1588 63.8426 15.6772 64.0394 15.1484 64.0394C14.0913 64.0394 13.3486 63.2925 13.3486 62.2397C13.3486 61.1869 14.0646 60.4399 15.0214 60.4399C15.978 60.4399 16.6873 61.1733 16.6873 62.2261C16.6873 62.2533 16.6806 62.2871 16.6806 62.3213ZM13.6833 62.0565H16.3596C16.3126 61.289 15.7641 60.7389 15.0214 60.7389C14.279 60.7389 13.7372 61.2821 13.6833 62.0565Z" fill="#009DC4"/>
<path id="Vector_5" d="M20.0056 60.4403V60.7731C19.9789 60.7731 19.9522 60.7662 19.925 60.7662C19.149 60.7662 18.6874 61.2894 18.6874 62.1656V64.0128H18.353V60.4675H18.6741V61.2419C18.8882 60.7254 19.3498 60.4403 20.0056 60.4403Z" fill="#009DC4"/>
<path id="Vector_6" d="M21.0762 63.5848L21.23 63.3131C21.4975 63.544 21.9724 63.7408 22.4879 63.7408C23.2236 63.7408 23.518 63.476 23.518 63.0752C23.518 62.043 21.2034 62.8035 21.2034 61.4115C21.2034 60.875 21.6447 60.4403 22.5279 60.4403C22.9695 60.4403 23.4511 60.5763 23.7255 60.7864L23.5716 61.0582C23.2772 60.8408 22.8959 60.739 22.5212 60.739C21.8391 60.739 21.538 61.0243 21.538 61.4046C21.538 62.4707 23.8527 61.7168 23.8527 63.0683C23.8527 63.6459 23.3644 64.0395 22.4746 64.0395C21.8991 64.0395 21.3506 63.8427 21.0762 63.5848Z" fill="#009DC4"/>
<path id="Vector_7" d="M25.3105 59.3328C25.3105 59.1835 25.4311 59.0544 25.5849 59.0544C25.7388 59.0544 25.8593 59.1763 25.8593 59.3256C25.8593 59.4819 25.7388 59.6046 25.5849 59.6046C25.4311 59.6046 25.3105 59.4822 25.3105 59.3328ZM25.4177 60.467H25.7521V64.0123H25.4177V60.467Z" fill="#009DC4"/>
<path id="Vector_8" d="M29.5256 63.7879C29.3517 63.9577 29.0706 64.0391 28.8098 64.0391C28.1944 64.0391 27.8597 63.6724 27.8597 63.0748V60.759H27.2173V60.4668H27.8597V59.6924H28.1941V60.4668H29.3045V60.759H28.1941V63.0409C28.1941 63.4961 28.4146 63.7473 28.8429 63.7473C29.0504 63.7473 29.2442 63.6793 29.385 63.5505L29.5256 63.7879Z" fill="#009DC4"/>
<path id="Vector_9" d="M33.8207 60.467L32.0279 64.4945C31.7469 65.1465 31.3989 65.3574 30.9373 65.3574C30.6231 65.3574 30.3285 65.2486 30.1279 65.0382L30.2951 64.7798C30.4759 64.9702 30.6834 65.0582 30.9442 65.0582C31.2655 65.0582 31.4997 64.9089 31.7135 64.4268L31.901 63.999L30.3287 60.467H30.6834L32.0815 63.6388L33.4797 60.467H33.8207Z" fill="#009DC4"/>
<path id="Vector_10" d="M37.4199 59.3328C37.4199 59.1835 37.5405 59.0544 37.6943 59.0544C37.8482 59.0544 37.9687 59.1763 37.9687 59.3256C37.9687 59.4819 37.8482 59.6046 37.6943 59.6046C37.5405 59.6046 37.4199 59.4822 37.4199 59.3328ZM37.5271 60.467H37.8615V64.0123H37.5271V60.467Z" fill="#009DC4"/>
<path id="Vector_11" d="M43.0266 61.941V64.0125H42.6919V61.9679C42.6919 61.1666 42.2709 60.7453 41.5613 60.7453C40.7383 60.7453 40.2367 61.2818 40.2367 62.1242V64.0122H39.9023V60.4669H40.2234V61.2343C40.4578 60.7386 40.9461 60.4399 41.6085 60.4399C42.4581 60.4402 43.0266 60.9493 43.0266 61.941Z" fill="#009DC4"/>
<path id="Vector_12" d="M51.2282 59.2577L49.1407 64.0121H48.7994L46.7119 59.2577H47.0866L48.9802 63.5641L50.8732 59.2577H51.2282Z" fill="#009DC4"/>
<path id="Vector_13" d="M55.1892 62.3213H52.1849C52.2185 63.1637 52.8273 63.7343 53.6639 63.7343C54.1049 63.7343 54.5132 63.5709 54.7809 63.2381L54.9748 63.4623C54.6671 63.8426 54.1855 64.0394 53.6567 64.0394C52.5999 64.0394 51.8569 63.2925 51.8569 62.2397C51.8569 61.1869 52.5729 60.4399 53.5297 60.4399C54.4865 60.4399 55.1956 61.1733 55.1956 62.2261C55.1959 62.2533 55.1892 62.2871 55.1892 62.3213ZM52.1919 62.0565H54.8679C54.8209 61.289 54.2724 60.7389 53.5297 60.7389C52.7871 60.7389 52.2455 61.2821 52.1919 62.0565Z" fill="#009DC4"/>
<path id="Vector_14" d="M59.9858 61.941V64.0125H59.6512V61.9679C59.6512 61.1666 59.2301 60.7453 58.5205 60.7453C57.6976 60.7453 57.196 61.2818 57.196 62.1242V64.0122H56.8613V60.4669H57.1827V61.2343C57.4171 60.7386 57.9051 60.4399 58.5677 60.4399C59.4173 60.4402 59.9858 60.9493 59.9858 61.941Z" fill="#009DC4"/>
<path id="Vector_15" d="M63.7255 63.7879C63.5511 63.9577 63.2703 64.0391 63.0095 64.0391C62.3941 64.0391 62.0591 63.6724 62.0591 63.0748V60.759H61.417V60.4668H62.0591V59.6924H62.3938V60.4668H63.5045V60.759H62.3938V63.0409C62.3938 63.4961 62.6146 63.7473 63.0429 63.7473C63.2503 63.7473 63.4442 63.6793 63.5845 63.5505L63.7255 63.7879Z" fill="#009DC4"/>
<path id="Vector_16" d="M68.3415 60.467V64.0124H68.0202V63.2513C67.7927 63.7476 67.3178 64.0393 66.7021 64.0393C65.8122 64.0393 65.2437 63.5302 65.2437 62.5385V60.467H65.5783V62.5116C65.5783 63.3129 65.9994 63.7342 66.729 63.7342C67.5183 63.7342 68.0066 63.1977 68.0066 62.3553V60.4673H68.3415V60.467Z" fill="#009DC4"/>
<path id="Vector_17" d="M72.0415 60.4403V60.7731C72.0145 60.7731 71.9881 60.7662 71.9609 60.7662C71.1849 60.7662 70.7233 61.2894 70.7233 62.1656V64.0128H70.3887V60.4675H70.71V61.2419C70.9241 60.7254 71.3857 60.4403 72.0415 60.4403Z" fill="#009DC4"/>
<path id="Vector_18" d="M76.5105 62.3213H73.5062C73.5398 63.1637 74.1486 63.7343 74.9852 63.7343C75.4262 63.7343 75.8345 63.5709 76.1022 63.2381L76.2961 63.4623C75.9884 63.8426 75.5068 64.0394 74.978 64.0394C73.9212 64.0394 73.1782 63.2925 73.1782 62.2397C73.1782 61.1869 73.8942 60.4399 74.851 60.4399C75.8078 60.4399 76.5169 61.1733 76.5169 62.2261C76.5169 62.2533 76.5105 62.2871 76.5105 62.3213ZM73.5132 62.0565H76.1892C76.1422 61.289 75.5937 60.7389 74.851 60.7389C74.1084 60.7389 73.5668 61.2821 73.5132 62.0565Z" fill="#009DC4"/>
<path id="Vector_19" d="M77.668 63.5848L77.8218 63.3131C78.0896 63.544 78.5648 63.7408 79.08 63.7408C79.816 63.7408 80.1101 63.476 80.1101 63.0752C80.1101 62.043 77.7954 62.8035 77.7954 61.4115C77.7954 60.875 78.237 60.4403 79.12 60.4403C79.5616 60.4403 80.0432 60.5763 80.3176 60.7864L80.1637 61.0582C79.8693 60.8408 79.4882 60.739 79.1136 60.739C78.4312 60.739 78.1298 61.0243 78.1298 61.4046C78.1298 62.4707 80.4445 61.7168 80.4445 63.0683C80.4445 63.6459 79.9562 64.0395 79.0666 64.0395C78.4909 64.0395 77.9424 63.8427 77.668 63.5848Z" fill="#009DC4"/>
</g>
<g id="Group_3">
<g id="Group_4">
<path id="Vector_20" d="M8.05954 50.0942L5.14061 56.8377H3.59928L0.689941 50.0942H2.37581L4.42781 54.9113L6.50888 50.0942H8.05954Z" fill="white"/>
<path id="Vector_21" d="M14.747 55.5852V56.8377H9.52539V50.0942H14.6214V51.3468H11.0763V52.8108H14.2073V54.0249H11.0763V55.5852H14.747Z" fill="white"/>
<path id="Vector_22" d="M23.0813 50.0942V56.8377H21.8L18.4378 52.7433V56.8377H16.8965V50.0942H18.1872L21.5397 54.1886V50.0942H23.0813Z" fill="white"/>
<path id="Vector_23" d="M26.9845 51.3657H24.8267V50.0942H30.7032V51.3657H28.5453V56.8377H26.9848V51.3657H26.9845Z" fill="white"/>
<path id="Vector_24" d="M32.2749 53.8701V50.0939H33.8354V53.8125C33.8354 55.0936 34.3944 55.6237 35.3384 55.6237C36.2922 55.6237 36.8413 55.0936 36.8413 53.8125V50.0939H38.3826V53.8701C38.3826 55.8546 37.2461 56.9528 35.3288 56.9528C33.4114 56.9528 32.2749 55.8546 32.2749 53.8701Z" fill="white"/>
<path id="Vector_25" d="M45.1275 56.8377L43.8273 54.959H43.7502H42.3918V56.8377H40.8315V50.0942H43.7505C45.5518 50.0942 46.679 51.0286 46.679 52.5414C46.679 53.5526 46.1683 54.2948 45.2915 54.6702L46.8038 56.8377H45.1275ZM43.6638 51.3657H42.3918V53.7164H43.6638C44.6169 53.7164 45.0985 53.2732 45.0985 52.5412C45.0985 51.7993 44.6169 51.3657 43.6638 51.3657Z" fill="white"/>
<path id="Vector_26" d="M53.2601 55.3925H50.1294L49.5318 56.8373H47.9326L50.9385 50.0939H52.4798L55.495 56.8373H53.8572L53.2601 55.3925ZM52.7689 54.2075L51.6993 51.6259L50.63 54.2075H52.7689Z" fill="white"/>
<path id="Vector_27" d="M56.5757 56.1732L57.1053 54.9974C57.6738 55.4116 58.5218 55.7009 59.3306 55.7009C60.2554 55.7009 60.6312 55.3926 60.6312 54.9785C60.6312 53.7164 56.7106 54.5833 56.7106 52.0785C56.7106 50.9324 57.6354 49.9785 59.5525 49.9785C60.4005 49.9785 61.2672 50.1809 61.8933 50.5756L61.4117 51.7606C60.7856 51.4038 60.1402 51.2305 59.5432 51.2305C58.6178 51.2305 58.2616 51.5772 58.2616 52.0014C58.2616 53.2441 62.1826 52.3868 62.1826 54.8622C62.1826 55.9894 61.2477 56.9526 59.3213 56.9526C58.252 56.9532 57.1728 56.6353 56.5757 56.1732Z" fill="white"/>
<path id="Vector_28" d="M65.4591 51.3657H63.3013V50.0942H69.1781V51.3657H67.0202V56.8377H65.4594V51.3657H65.4591Z" fill="white"/>
<path id="Vector_29" d="M70.9224 50.0942H72.4832V56.8377H70.9224V50.0942Z" fill="white"/>
<path id="Vector_30" d="M74.5649 53.4662C74.5649 51.4332 76.1257 49.9788 78.2257 49.9788C79.3913 49.9788 80.3641 50.4025 81.0001 51.1734L79.9983 52.0982C79.5452 51.5777 78.9769 51.3084 78.3025 51.3084C77.0404 51.3084 76.1447 52.1942 76.1447 53.4662C76.1447 54.7377 77.0404 55.6241 78.3025 55.6241C78.9769 55.6241 79.5452 55.3542 79.9983 54.8241L81.0001 55.7489C80.3641 56.5294 79.3913 56.9529 78.2161 56.9529C76.1257 56.9531 74.5649 55.4987 74.5649 53.4662Z" fill="white"/>
</g>
</g>
</g>
<g id="Group_5">
<g id="Group_6">
<path id="Vector_31" d="M42.6982 39.9714L59.6884 1.00256H60.6902L43.1884 41.1226L42.6982 39.9714Z" fill="#009DC4"/>
<path id="Vector_32" d="M41.1636 38.948L57.69 1.00239L58.7292 0.994385L41.654 40.0989L41.1636 38.948Z" fill="#009DC4"/>
<path id="Vector_33" d="M39.6284 37.9245L55.7234 0.994385L56.7386 1.00239L40.1188 39.0757L39.6284 37.9245Z" fill="#009DC4"/>
<path id="Vector_34" d="M43.8706 42.4212L61.5429 1.00256H62.5024L44.3322 43.7231L43.8706 42.4212Z" fill="#009DC4"/>
<path id="Vector_35" d="M45.0029 44.7386L63.5256 1.00256H64.517L45.5067 45.9135L45.0029 44.7386Z" fill="#009DC4"/>
</g>
<path id="Vector_36" d="M17.0127 1.00269L27.1047 1.01362L45.5071 45.9136L35.8343 45.9189L17.0127 1.00269Z" fill="white"/>
<g id="Group_7">
<path id="Vector_37" d="M41.2501 15.6732L39.3564 19.6831L41.3383 24.798L43.2759 19.7242L41.2501 15.6732Z" fill="#009DC4"/>
<path id="Vector_38" d="M37.0225 19.7241L38.8723 20.0513L40.9419 25.4119L37.0225 19.7241Z" fill="white"/>
<path id="Vector_39" d="M45.6978 19.7241L43.8482 20.0513L41.7783 25.4119L45.6978 19.7241Z" fill="white"/>
<path id="Vector_40" d="M37.5948 16.8187L36.8022 18.9464L38.5636 19.2331L37.5948 16.8187Z" fill="#009DC4"/>
<path id="Vector_41" d="M45.1695 16.8187L45.9623 18.9464L44.2007 19.2331L45.1695 16.8187Z" fill="#009DC4"/>
<path id="Vector_42" d="M38.0352 16.2871L40.8976 15.1412L39.092 18.9466L38.0352 16.2871Z" fill="white"/>
<path id="Vector_43" d="M44.5968 16.2871L41.7344 15.1412L43.54 18.9466L44.5968 16.2871Z" fill="white"/>
</g>
</g>
</g>
</g>
<defs>
<clipPath id="clip0_0_1131">
<rect width="81.0001" height="66" fill="white"/>
</clipPath>
</defs>
</svg>
