<svg width="1076" height="294" viewBox="0 0 1076 294" fill="none" xmlns="http://www.w3.org/2000/svg">
<path d="M568.225 97.4658C567.472 97.4658 566.881 98.0569 566.881 98.8091V130.134C566.881 145.421 579.32 157.86 594.607 157.86H920.593C934.402 157.86 945.632 169.089 945.632 182.898V200.415C945.632 201.167 946.223 201.758 946.975 201.758C947.727 201.758 948.318 201.167 948.318 200.415V182.898C948.318 167.612 935.879 155.173 920.593 155.173H594.607C580.798 155.173 569.568 143.943 569.568 130.134V98.8091C569.568 98.0569 568.977 97.4658 568.225 97.4658Z" fill="#4D4D4D"/>
<path d="M946.977 205.196C949.766 205.196 952.027 202.935 952.027 200.146C952.027 197.356 949.766 195.095 946.977 195.095C944.187 195.095 941.926 197.356 941.926 200.146C941.926 202.935 944.187 205.196 946.977 205.196Z" fill="#4D4D4D"/>
<path d="M568.226 104.101C571.015 104.101 573.276 101.84 573.276 99.0507C573.276 96.2613 571.015 94 568.226 94C565.436 94 563.175 96.2613 563.175 99.0507C563.175 101.84 565.436 104.101 568.226 104.101Z" fill="#4D4D4D"/>
<path d="M521.801 97.4658C521.049 97.4658 520.458 98.0569 520.458 98.8091V130.134C520.458 143.943 509.228 155.173 495.419 155.173H169.433C154.147 155.173 141.708 167.612 141.708 182.898V200.415C141.708 201.167 142.299 201.758 143.051 201.758C143.804 201.758 144.395 201.167 144.395 200.415V182.898C144.395 169.089 155.624 157.86 169.433 157.86H495.419C510.706 157.86 523.145 145.421 523.145 130.134V98.8091C523.145 98.0569 522.527 97.4658 521.801 97.4658Z" fill="#4D4D4D"/>
<path d="M138 200.146C138 202.94 140.257 205.196 143.051 205.196C145.845 205.196 148.101 202.94 148.101 200.146C148.101 197.352 145.845 195.095 143.051 195.095C140.257 195.095 138 197.352 138 200.146Z" fill="#4D4D4D"/>
<path d="M521.802 104.101C524.591 104.101 526.852 101.84 526.852 99.0507C526.852 96.2613 524.591 94 521.802 94C519.012 94 516.751 96.2613 516.751 99.0507C516.751 101.84 519.012 104.101 521.802 104.101Z" fill="#4D4D4D"/>
<path d="M544.879 97.4658C544.127 97.4658 543.536 98.0569 543.536 98.8091V200.388C543.536 201.14 544.127 201.731 544.879 201.731C545.632 201.731 546.223 201.14 546.223 200.388V98.8091C546.223 98.0569 545.632 97.4658 544.879 97.4658Z" fill="#4D4D4D"/>
<path d="M539.828 200.146C539.828 202.94 542.085 205.196 544.879 205.196C547.673 205.196 549.929 202.94 549.929 200.146C549.929 197.352 547.673 195.095 544.879 195.095C542.085 195.095 539.828 197.352 539.828 200.146Z" fill="#4D4D4D"/>
<path d="M539.828 99.0507C539.828 96.2567 542.085 94 544.879 94C547.673 94 549.929 96.2567 549.929 99.0507C549.929 101.845 547.673 104.101 544.879 104.101C542.085 104.101 539.828 101.845 539.828 99.0507Z" fill="#4D4D4D"/>
<g filter="url(#filter0_d_0_1011)">
<rect x="420" y="4" width="250" height="60" rx="4" fill="#009CC4"/>
</g>
<path d="M456.54 25.4C456.876 25.448 457.356 25.472 457.98 25.472H473.064C473.832 25.472 474.312 25.448 474.504 25.4V31.016H473.568C473.568 29.456 473.22 28.316 472.524 27.596C471.852 26.852 470.724 26.48 469.14 26.48H467.628C467.388 26.48 467.244 26.612 467.196 26.876V45.236C467.196 45.764 467.436 46.028 467.916 46.028L469.824 45.956V47H461.22V45.956L463.164 46.028C463.38 46.028 463.548 45.944 463.668 45.776C463.788 45.584 463.848 45.368 463.848 45.128V26.912C463.848 26.624 463.704 26.48 463.416 26.48H461.94C460.356 26.48 459.216 26.852 458.52 27.596C457.824 28.316 457.476 29.456 457.476 31.016H456.54V25.4ZM493.235 46.064V47H486.215V46.064L487.871 46.136C488.183 46.064 488.339 45.836 488.339 45.452V37.28C488.339 36.128 488.279 35.24 488.159 34.616C488.063 33.992 487.847 33.512 487.511 33.176C487.175 32.84 486.647 32.672 485.927 32.672C484.559 32.672 483.443 33.26 482.579 34.436C481.739 35.588 481.283 37.148 481.211 39.116V45.452C481.211 45.908 481.367 46.136 481.679 46.136L483.335 46.064V47H476.315V46.064L477.647 46.136C477.959 46.064 478.115 45.836 478.115 45.452V22.304C478.115 21.8 477.959 21.548 477.647 21.548L476.315 21.62V20.72H481.211V35.12C481.715 33.992 482.435 33.116 483.371 32.492C484.307 31.844 485.387 31.52 486.611 31.52C488.315 31.52 489.539 31.928 490.283 32.744C491.051 33.536 491.435 34.832 491.435 36.632V45.452C491.435 45.908 491.591 46.136 491.903 46.136L493.235 46.064ZM502.465 31.52C504.361 31.52 505.885 32.132 507.037 33.356C508.213 34.556 508.825 36.212 508.873 38.324V39.368H498.505C498.505 41.552 498.877 43.232 499.621 44.408C500.389 45.56 501.529 46.148 503.041 46.172C504.241 46.172 505.249 45.872 506.065 45.272C506.905 44.672 507.517 43.928 507.901 43.04L508.729 43.652C508.249 44.804 507.433 45.716 506.281 46.388C505.153 47.036 503.905 47.36 502.537 47.36C497.665 47.36 495.229 44.732 495.229 39.476C495.229 36.86 495.841 34.88 497.065 33.536C498.289 32.192 500.089 31.52 502.465 31.52ZM502.465 32.492C501.121 32.492 500.125 33.044 499.477 34.148C498.853 35.252 498.541 36.692 498.541 38.468H505.093C505.333 38.468 505.513 38.384 505.633 38.216C505.753 38.048 505.813 37.736 505.813 37.28C505.813 35.648 505.549 34.448 505.021 33.68C504.517 32.888 503.665 32.492 502.465 32.492ZM519.851 45.956L521.255 46.028C521.711 46.028 521.939 45.764 521.939 45.236V27.308C521.939 27.02 521.879 26.816 521.759 26.696C521.639 26.552 521.423 26.492 521.111 26.516L519.851 26.588V25.508H528.311C530.807 25.508 532.643 25.988 533.819 26.948C535.019 27.884 535.619 29.336 535.619 31.304C535.619 33.2 535.031 34.712 533.855 35.84C532.679 36.968 531.083 37.532 529.067 37.532H525.287V45.236C525.287 45.764 525.527 46.028 526.007 46.028L527.771 45.956V47H519.851V45.956ZM528.311 36.524C529.415 36.524 530.327 36.032 531.047 35.048C531.791 34.064 532.163 32.816 532.163 31.304C532.163 29.864 531.755 28.712 530.939 27.848C530.147 26.96 529.079 26.516 527.735 26.516H525.719C525.623 26.516 525.527 26.564 525.431 26.66C525.335 26.732 525.287 26.828 525.287 26.948V36.524H528.311ZM546.629 31.52C547.565 31.52 548.285 31.784 548.789 32.312C549.317 32.84 549.581 33.512 549.581 34.328C549.581 34.88 549.437 35.3 549.149 35.588C548.885 35.876 548.525 36.02 548.069 36.02C547.733 36.02 547.421 35.936 547.133 35.768C546.869 35.576 546.737 35.288 546.737 34.904C546.737 34.688 546.785 34.412 546.881 34.076C546.977 33.74 547.025 33.476 547.025 33.284C547.025 33.092 546.953 32.924 546.809 32.78C546.689 32.612 546.485 32.528 546.197 32.528C545.453 32.528 544.805 32.888 544.253 33.608C543.701 34.304 543.269 35.18 542.957 36.236C542.645 37.268 542.465 38.264 542.417 39.224V45.452C542.417 45.908 542.573 46.136 542.885 46.136L545.081 46.064V47H537.701V46.064L538.853 46.136C539.165 46.136 539.321 45.908 539.321 45.452V33.464C539.321 32.984 539.165 32.744 538.853 32.744L537.557 32.816V31.88H542.633C542.585 32.024 542.537 32.264 542.489 32.6C542.441 32.912 542.417 33.224 542.417 33.536V35.3C542.969 33.956 543.581 32.996 544.253 32.42C544.949 31.82 545.741 31.52 546.629 31.52ZM551.022 39.404C551.022 36.956 551.634 35.036 552.858 33.644C554.082 32.228 555.882 31.52 558.258 31.52C560.634 31.52 562.434 32.228 563.658 33.644C564.882 35.036 565.494 36.956 565.494 39.404C565.494 41.9 564.882 43.856 563.658 45.272C562.434 46.664 560.634 47.36 558.258 47.36C555.882 47.36 554.082 46.664 552.858 45.272C551.634 43.856 551.022 41.9 551.022 39.404ZM554.298 39.476C554.298 41.9 554.598 43.664 555.198 44.768C555.822 45.848 556.842 46.388 558.258 46.388C559.674 46.388 560.682 45.848 561.282 44.768C561.906 43.664 562.218 41.9 562.218 39.476C562.218 37.028 561.906 35.252 561.282 34.148C560.682 33.044 559.674 32.492 558.258 32.492C556.842 32.492 555.822 33.044 555.198 34.148C554.598 35.252 554.298 37.028 554.298 39.476ZM571.17 23.852C571.746 23.852 572.214 24.008 572.574 24.32C572.958 24.632 573.15 25.04 573.15 25.544C573.15 26.096 572.958 26.528 572.574 26.84C572.214 27.128 571.746 27.272 571.17 27.272C570.57 27.272 570.09 27.128 569.73 26.84C569.394 26.528 569.226 26.096 569.226 25.544C569.226 25.016 569.406 24.608 569.766 24.32C570.126 24.008 570.594 23.852 571.17 23.852ZM572.898 47.144C572.898 52.88 571.182 55.748 567.75 55.748C566.646 55.748 565.77 55.508 565.122 55.028C564.45 54.572 564.114 54.008 564.114 53.336C564.114 52.856 564.27 52.472 564.582 52.184C564.894 51.896 565.302 51.752 565.806 51.752C566.094 51.752 566.382 51.824 566.67 51.968C566.934 52.112 567.066 52.376 567.066 52.76C567.066 52.88 567.03 53.072 566.958 53.336C566.886 53.6 566.85 53.78 566.85 53.876C566.85 54.164 566.946 54.38 567.138 54.524C567.354 54.692 567.63 54.776 567.966 54.776C569.238 54.776 569.874 53.78 569.874 51.788C569.874 51.668 569.862 51.38 569.838 50.924C569.814 50.468 569.802 49.868 569.802 49.124V33.464C569.802 32.984 569.646 32.744 569.334 32.744L567.858 32.816V31.88H572.898V47.144ZM584.273 31.52C586.169 31.52 587.693 32.132 588.845 33.356C590.021 34.556 590.633 36.212 590.681 38.324V39.368H580.313C580.313 41.552 580.685 43.232 581.429 44.408C582.197 45.56 583.337 46.148 584.849 46.172C586.049 46.172 587.057 45.872 587.873 45.272C588.713 44.672 589.325 43.928 589.709 43.04L590.537 43.652C590.057 44.804 589.241 45.716 588.089 46.388C586.961 47.036 585.713 47.36 584.345 47.36C579.473 47.36 577.037 44.732 577.037 39.476C577.037 36.86 577.649 34.88 578.873 33.536C580.097 32.192 581.897 31.52 584.273 31.52ZM584.273 32.492C582.929 32.492 581.933 33.044 581.285 34.148C580.661 35.252 580.349 36.692 580.349 38.468H586.901C587.141 38.468 587.321 38.384 587.441 38.216C587.561 38.048 587.621 37.736 587.621 37.28C587.621 35.648 587.357 34.448 586.829 33.68C586.325 32.888 585.473 32.492 584.273 32.492ZM600.301 31.52C601.285 31.52 602.197 31.688 603.037 32.024C603.901 32.336 604.585 32.78 605.089 33.356C605.617 33.908 605.881 34.52 605.881 35.192C605.881 35.696 605.737 36.128 605.449 36.488C605.185 36.824 604.753 36.992 604.153 36.992C603.313 36.992 602.893 36.632 602.893 35.912C602.893 35.72 602.941 35.48 603.037 35.192C603.157 34.904 603.217 34.628 603.217 34.364C603.217 33.764 602.941 33.308 602.389 32.996C601.837 32.66 601.177 32.492 600.409 32.492C599.161 32.492 598.213 32.996 597.565 34.004C596.917 35.012 596.593 36.74 596.593 39.188C596.593 41.612 596.929 43.424 597.601 44.624C598.273 45.8 599.293 46.388 600.661 46.388C601.861 46.388 602.929 46.052 603.865 45.38C604.825 44.708 605.449 43.76 605.737 42.536L606.601 43.184C606.169 44.48 605.425 45.5 604.369 46.244C603.337 46.988 602.041 47.36 600.481 47.36C598.225 47.36 596.449 46.676 595.153 45.308C593.881 43.916 593.245 42.008 593.245 39.584C593.245 37.952 593.533 36.536 594.109 35.336C594.709 34.112 595.537 33.176 596.593 32.528C597.673 31.856 598.909 31.52 600.301 31.52ZM613.398 31.88H617.358V32.78H613.398V43.832C613.398 44.744 613.506 45.368 613.722 45.704C613.938 46.016 614.322 46.172 614.874 46.172C615.234 46.172 615.606 46.04 615.99 45.776C616.374 45.488 616.626 45.14 616.746 44.732L617.502 45.2C617.022 46.544 615.75 47.216 613.686 47.216C612.462 47.216 611.586 46.928 611.058 46.352C610.554 45.776 610.302 44.84 610.302 43.544V32.78H608.142V31.88C609.102 31.88 609.834 31.796 610.338 31.628C610.842 31.436 611.238 31.088 611.526 30.584C611.838 30.08 612.126 29.288 612.39 28.208H613.398V31.88ZM620.291 41.888L621.227 41.816C621.227 42.704 621.467 43.496 621.947 44.192C622.427 44.888 623.063 45.428 623.855 45.812C624.647 46.196 625.511 46.388 626.447 46.388C627.407 46.388 628.151 46.148 628.679 45.668C629.207 45.164 629.471 44.492 629.471 43.652C629.471 42.98 629.279 42.428 628.895 41.996C628.511 41.564 627.863 41.216 626.951 40.952L623.495 39.98C622.535 39.692 621.779 39.212 621.227 38.54C620.675 37.844 620.399 36.992 620.399 35.984C620.399 34.664 620.891 33.596 621.875 32.78C622.859 31.94 624.203 31.52 625.907 31.52C626.387 31.52 626.807 31.556 627.167 31.628C627.551 31.7 628.019 31.82 628.571 31.988C629.315 32.204 629.867 32.312 630.227 32.312C630.587 32.312 630.923 32.216 631.235 32.024L631.019 36.128H630.227C630.227 35.168 629.843 34.328 629.075 33.608C628.331 32.864 627.311 32.492 626.015 32.492C625.103 32.492 624.383 32.732 623.855 33.212C623.351 33.692 623.099 34.304 623.099 35.048C623.099 36.224 623.843 37.016 625.331 37.424L628.787 38.396C630.011 38.732 630.875 39.236 631.379 39.908C631.883 40.556 632.135 41.408 632.135 42.464C632.135 44.024 631.583 45.236 630.479 46.1C629.375 46.94 627.935 47.36 626.159 47.36C625.655 47.36 625.127 47.3 624.575 47.18C624.047 47.084 623.231 46.88 622.127 46.568C621.767 46.472 621.443 46.424 621.155 46.424C620.675 46.424 620.327 46.496 620.111 46.64L620.291 41.888Z" fill="white"/>
<g filter="url(#filter1_d_0_1011)">
<rect x="18" y="230" width="250" height="60" rx="4" fill="#366181"/>
</g>
<path d="M6.51745 245.012C4.782 243.957 3.4311 242.429 2.44505 240.437C1.46886 238.435 0.97583 236.059 0.97583 233.298C0.97583 230.537 1.46886 228.16 2.44505 226.159C3.42124 224.157 4.782 222.639 6.51745 221.583C8.25291 220.528 10.2447 220.006 12.4929 220.006C14.7412 220.006 16.733 220.528 18.4684 221.583C20.2039 222.639 21.5548 224.167 22.5408 226.159C23.517 228.16 24.0101 230.537 24.0101 233.298C24.0101 236.059 23.517 238.435 22.5408 240.437C21.5647 242.438 20.2039 243.957 18.4684 245.012C16.733 246.067 14.7412 246.59 12.4929 246.59C10.2349 246.59 8.24305 246.067 6.51745 245.012ZM15.3919 233.298C15.3919 229.008 14.4256 226.869 12.4831 226.869C10.5406 226.869 9.57422 229.008 9.57422 233.298C9.57422 237.587 10.5406 239.727 12.4831 239.727C14.4256 239.727 15.3919 237.587 15.3919 233.298Z" fill="#366181"/>
<path d="M12.4933 247.576C10.0676 247.576 7.88844 246.994 6.00508 245.85C4.12171 244.706 2.62291 243.03 1.56783 240.861C0.522613 238.741 0 236.187 0 233.288C0 230.389 0.532474 227.845 1.56783 225.715C2.62291 223.556 4.12171 221.879 6.00508 220.726C7.88844 219.582 10.0676 219 12.4933 219C14.919 219 17.0982 219.582 18.9816 220.726C20.8649 221.869 22.3637 223.556 23.4188 225.715C24.464 227.835 24.9866 230.389 24.9866 233.288C24.9866 236.187 24.4542 238.731 23.4188 240.861C22.3637 243.02 20.8649 244.697 18.9816 245.85C17.0982 246.994 14.919 247.576 12.4933 247.576ZM12.4933 220.992C10.4325 220.992 8.5984 221.475 7.03058 222.431C5.47261 223.378 4.23018 224.788 3.33287 226.602C2.4257 228.456 1.96225 230.714 1.96225 233.308C1.96225 235.901 2.4257 238.159 3.33287 240.013C4.22032 241.827 5.47261 243.237 7.03058 244.184C8.5984 245.14 10.4325 245.623 12.4933 245.623C14.5542 245.623 16.3882 245.14 17.9561 244.184C19.514 243.237 20.7565 241.827 21.6538 240.013C22.5609 238.159 23.0244 235.911 23.0244 233.308C23.0244 230.714 22.5609 228.456 21.6538 226.602C20.7663 224.788 19.514 223.378 17.9561 222.431C16.3882 221.475 14.5542 220.992 12.4933 220.992ZM12.4933 240.713C9.90985 240.713 8.5984 238.218 8.5984 233.298C8.5984 228.377 9.90985 225.883 12.4933 225.883C15.0768 225.883 16.3882 228.377 16.3882 233.298C16.3784 238.218 15.0768 240.713 12.4933 240.713ZM12.4933 227.855C10.8269 227.855 10.5705 231.267 10.5705 233.298C10.5705 235.329 10.817 238.741 12.4933 238.741C14.1597 238.741 14.4161 235.329 14.4161 233.298C14.4063 231.267 14.1597 227.855 12.4933 227.855Z" fill="white"/>
<path d="M35.6259 220.588V246.018H27.0571V227.056H22.6987V220.588H35.6259Z" fill="#366181"/>
<path d="M36.6122 246.994H26.0713V228.032H21.7129V219.592H36.6122V246.994ZM28.0434 245.022H34.6401V221.564H23.685V226.06H28.0434V245.022Z" fill="white"/>
<path d="M82.754 269V268.246C83.3607 267.969 84.0713 267.761 84.886 267.622V252.204C84.4873 252.117 84.106 252.022 83.742 251.918C83.378 251.797 83.0487 251.675 82.754 251.554V250.8H85.406C85.7007 250.8 86.0473 250.791 86.446 250.774C86.8447 250.757 87.252 250.739 87.668 250.722C88.1013 250.687 88.5087 250.661 88.89 250.644C89.2887 250.609 89.618 250.592 89.878 250.592C92.8247 250.592 95.0867 251.381 96.664 252.958C98.2587 254.535 99.056 256.771 99.056 259.666C99.056 261.035 98.8567 262.309 98.458 263.488C98.0767 264.649 97.4873 265.655 96.69 266.504C95.8927 267.353 94.8787 268.021 93.648 268.506C92.4347 268.991 90.996 269.234 89.332 269.234C89.072 269.234 88.7773 269.217 88.448 269.182C88.1187 269.165 87.772 269.139 87.408 269.104C87.044 269.087 86.6713 269.061 86.29 269.026C85.926 269.009 85.5793 269 85.25 269H82.754ZM89.514 251.944C89.0633 251.944 88.63 251.953 88.214 251.97C87.798 251.97 87.4687 251.996 87.226 252.048V267.804C87.3127 267.821 87.4687 267.839 87.694 267.856C87.9193 267.856 88.162 267.865 88.422 267.882C88.682 267.882 88.9247 267.882 89.15 267.882C89.3927 267.882 89.566 267.882 89.67 267.882C90.866 267.882 91.88 267.657 92.712 267.206C93.544 266.755 94.22 266.157 94.74 265.412C95.2773 264.649 95.6673 263.774 95.91 262.786C96.1527 261.798 96.274 260.758 96.274 259.666C96.274 258.817 96.1527 257.941 95.91 257.04C95.6847 256.121 95.3033 255.289 94.766 254.544C94.246 253.781 93.5527 253.157 92.686 252.672C91.8193 252.187 90.762 251.944 89.514 251.944ZM101.474 262.5C101.474 261.408 101.613 260.446 101.89 259.614C102.185 258.765 102.601 258.054 103.138 257.482C103.676 256.893 104.317 256.451 105.062 256.156C105.825 255.844 106.666 255.688 107.584 255.688C108.659 255.688 109.586 255.853 110.366 256.182C111.146 256.511 111.779 256.979 112.264 257.586C112.767 258.175 113.131 258.886 113.356 259.718C113.599 260.55 113.72 261.477 113.72 262.5C113.72 264.684 113.166 266.365 112.056 267.544C110.947 268.723 109.456 269.312 107.584 269.312C106.544 269.312 105.643 269.156 104.88 268.844C104.118 268.515 103.485 268.055 102.982 267.466C102.48 266.859 102.098 266.14 101.838 265.308C101.596 264.459 101.474 263.523 101.474 262.5ZM103.97 262.5C103.97 263.28 104.04 264.017 104.178 264.71C104.334 265.403 104.568 266.01 104.88 266.53C105.21 267.033 105.634 267.431 106.154 267.726C106.674 268.021 107.298 268.168 108.026 268.168C108.962 268.168 109.725 267.709 110.314 266.79C110.921 265.871 111.224 264.441 111.224 262.5C111.224 261.703 111.146 260.966 110.99 260.29C110.852 259.597 110.626 258.999 110.314 258.496C110.002 257.976 109.604 257.569 109.118 257.274C108.633 256.979 108.052 256.832 107.376 256.832C106.354 256.832 105.53 257.291 104.906 258.21C104.282 259.129 103.97 260.559 103.97 262.5ZM125.881 267.18C125.569 267.787 125.058 268.298 124.347 268.714C123.654 269.113 122.839 269.312 121.903 269.312C120.881 269.312 119.988 269.156 119.225 268.844C118.48 268.515 117.856 268.055 117.353 267.466C116.851 266.859 116.469 266.14 116.209 265.308C115.967 264.459 115.845 263.523 115.845 262.5C115.845 260.299 116.383 258.617 117.457 257.456C118.532 256.277 119.997 255.688 121.851 255.688C122.701 255.688 123.455 255.766 124.113 255.922C124.789 256.061 125.361 256.251 125.829 256.494C125.777 257.066 125.682 257.707 125.543 258.418C125.405 259.129 125.231 259.718 125.023 260.186H124.321L123.229 257.092C123.108 257.005 122.969 256.945 122.813 256.91C122.657 256.858 122.397 256.832 122.033 256.832C120.855 256.832 119.945 257.265 119.303 258.132C118.662 258.981 118.341 260.429 118.341 262.474C118.341 263.133 118.428 263.774 118.601 264.398C118.792 265.022 119.069 265.585 119.433 266.088C119.815 266.573 120.283 266.963 120.837 267.258C121.409 267.553 122.068 267.7 122.813 267.7C123.42 267.7 123.949 267.613 124.399 267.44C124.85 267.267 125.231 267.059 125.543 266.816L125.881 267.18ZM128.893 263.852C128.893 262.76 128.919 261.694 128.971 260.654C129.023 259.597 129.049 258.548 129.049 257.508L127.333 257.3V256.624C127.887 256.416 128.451 256.234 129.023 256.078C129.612 255.922 130.184 255.792 130.739 255.688H131.389C131.389 256.988 131.363 258.279 131.311 259.562C131.259 260.845 131.233 262.119 131.233 263.384C131.233 264.06 131.267 264.667 131.337 265.204C131.423 265.741 131.562 266.192 131.753 266.556C131.961 266.92 132.238 267.206 132.585 267.414C132.931 267.605 133.373 267.7 133.911 267.7C134.691 267.7 135.341 267.423 135.861 266.868C136.398 266.296 136.814 265.559 137.109 264.658V257.508L135.419 257.3V256.624C135.956 256.416 136.511 256.234 137.083 256.078C137.672 255.922 138.244 255.792 138.799 255.688H139.449V267.518L141.165 267.726V268.272C140.662 268.497 140.151 268.697 139.631 268.87C139.128 269.043 138.599 269.173 138.045 269.26H137.395L137.213 266.166H137.109C137.022 266.53 136.866 266.903 136.641 267.284C136.433 267.648 136.155 267.986 135.809 268.298C135.462 268.593 135.063 268.835 134.613 269.026C134.179 269.217 133.703 269.312 133.183 269.312C132.489 269.312 131.874 269.225 131.337 269.052C130.817 268.896 130.375 268.61 130.011 268.194C129.647 267.778 129.369 267.223 129.179 266.53C128.988 265.819 128.893 264.927 128.893 263.852ZM156.068 269H150.504V268.35C150.678 268.246 150.886 268.142 151.128 268.038C151.388 267.917 151.692 267.813 152.038 267.726V261.72C152.038 261.027 152.004 260.403 151.934 259.848C151.882 259.293 151.77 258.834 151.596 258.47C151.44 258.089 151.206 257.803 150.894 257.612C150.582 257.404 150.175 257.3 149.672 257.3C149.291 257.3 148.936 257.378 148.606 257.534C148.294 257.69 148.008 257.898 147.748 258.158C147.506 258.418 147.289 258.713 147.098 259.042C146.925 259.371 146.786 259.718 146.682 260.082V267.726C146.96 267.813 147.22 267.908 147.462 268.012C147.722 268.099 147.974 268.211 148.216 268.35V269H142.626V268.35C142.869 268.229 143.138 268.116 143.432 268.012C143.727 267.908 144.03 267.813 144.342 267.726V257.508L142.626 257.3V256.624C143.181 256.381 143.744 256.191 144.316 256.052C144.906 255.896 145.478 255.775 146.032 255.688H146.682V258.626H146.708C146.986 257.811 147.454 257.118 148.112 256.546C148.788 255.974 149.62 255.688 150.608 255.688C151.024 255.688 151.423 255.731 151.804 255.818C152.186 255.905 152.541 256.069 152.87 256.312C153.2 256.537 153.477 256.858 153.702 257.274C153.928 257.69 154.092 258.227 154.196 258.886C154.508 257.933 155.011 257.161 155.704 256.572C156.398 255.983 157.264 255.688 158.304 255.688C158.946 255.688 159.5 255.775 159.968 255.948C160.454 256.104 160.852 256.39 161.164 256.806C161.476 257.222 161.702 257.785 161.84 258.496C161.996 259.207 162.074 260.108 162.074 261.2V267.726C162.664 267.83 163.236 268.038 163.79 268.35V269H158.2V268.35C158.72 268.073 159.232 267.865 159.734 267.726V261.252C159.734 260.628 159.7 260.073 159.63 259.588C159.578 259.103 159.466 258.695 159.292 258.366C159.119 258.019 158.876 257.759 158.564 257.586C158.252 257.395 157.836 257.3 157.316 257.3C156.484 257.3 155.834 257.586 155.366 258.158C154.916 258.73 154.586 259.458 154.378 260.342V267.726C154.985 267.899 155.548 268.107 156.068 268.35V269ZM175.862 267.18C175.723 267.475 175.506 267.752 175.212 268.012C174.917 268.272 174.579 268.497 174.198 268.688C173.816 268.879 173.4 269.026 172.95 269.13C172.499 269.251 172.04 269.312 171.572 269.312C170.549 269.312 169.648 269.156 168.868 268.844C168.088 268.515 167.438 268.055 166.918 267.466C166.398 266.859 165.999 266.14 165.722 265.308C165.462 264.476 165.332 263.54 165.332 262.5C165.332 260.281 165.843 258.591 166.866 257.43C167.888 256.269 169.336 255.688 171.208 255.688C171.814 255.688 172.412 255.775 173.002 255.948C173.591 256.104 174.111 256.373 174.562 256.754C175.03 257.135 175.402 257.647 175.68 258.288C175.974 258.912 176.122 259.692 176.122 260.628C176.122 260.923 176.104 261.226 176.07 261.538C176.052 261.833 176.009 262.153 175.94 262.5H167.828C167.828 263.228 167.914 263.913 168.088 264.554C168.278 265.178 168.556 265.724 168.92 266.192C169.284 266.66 169.743 267.033 170.298 267.31C170.852 267.57 171.502 267.7 172.248 267.7C172.854 267.7 173.47 267.613 174.094 267.44C174.718 267.267 175.186 267.041 175.498 266.764L175.862 267.18ZM171.104 256.832C170.116 256.832 169.362 257.17 168.842 257.846C168.322 258.505 168.01 259.675 167.906 261.356H173.626C173.643 261.2 173.652 261.053 173.652 260.914C173.669 260.758 173.678 260.611 173.678 260.472C173.678 259.363 173.47 258.479 173.054 257.82C172.638 257.161 171.988 256.832 171.104 256.832ZM192.344 269H186.754V268.35C187.222 268.107 187.733 267.899 188.288 267.726V261.564C188.288 260.247 188.097 259.207 187.716 258.444C187.334 257.681 186.641 257.3 185.636 257.3C185.202 257.3 184.795 257.378 184.414 257.534C184.05 257.69 183.72 257.907 183.426 258.184C183.148 258.444 182.906 258.747 182.698 259.094C182.49 259.423 182.325 259.77 182.204 260.134V267.726C182.741 267.83 183.261 268.038 183.764 268.35V269H178.148V268.35C178.581 268.125 179.153 267.917 179.864 267.726V257.508L178.148 257.3V256.624C178.598 256.433 179.118 256.26 179.708 256.104C180.297 255.948 180.912 255.809 181.554 255.688H182.204V258.6H182.23C182.594 257.803 183.114 257.118 183.79 256.546C184.483 255.974 185.315 255.688 186.286 255.688C186.979 255.688 187.594 255.775 188.132 255.948C188.686 256.104 189.146 256.39 189.51 256.806C189.874 257.222 190.151 257.785 190.342 258.496C190.532 259.189 190.628 260.073 190.628 261.148V267.726C191.321 267.847 191.893 268.055 192.344 268.35V269ZM193.169 256.624C193.828 256.208 194.521 255.913 195.249 255.74V253.53C195.475 253.339 195.735 253.175 196.029 253.036C196.341 252.88 196.645 252.733 196.939 252.594H197.589V256H201.489V257.3H197.589V264.84C197.589 265.88 197.754 266.617 198.083 267.05C198.413 267.483 198.907 267.7 199.565 267.7C199.877 267.7 200.267 267.683 200.735 267.648C201.203 267.596 201.602 267.509 201.931 267.388L202.113 267.778C201.975 267.934 201.775 268.099 201.515 268.272C201.273 268.445 200.987 268.61 200.657 268.766C200.345 268.922 199.999 269.052 199.617 269.156C199.236 269.26 198.846 269.312 198.447 269.312C197.407 269.312 196.61 269.017 196.055 268.428C195.518 267.839 195.249 266.885 195.249 265.568V257.3H193.169V256.624Z" fill="white"/>
<g filter="url(#filter2_d_0_1011)">
<rect x="420" y="230" width="250" height="60" rx="4" fill="#4D87B3"/>
</g>
<path d="M408.517 245.012C406.782 243.957 405.431 242.429 404.445 240.437C403.469 238.435 402.976 236.059 402.976 233.298C402.976 230.537 403.469 228.16 404.445 226.159C405.421 224.157 406.782 222.639 408.517 221.583C410.253 220.528 412.245 220.006 414.493 220.006C416.741 220.006 418.733 220.528 420.468 221.583C422.204 222.639 423.555 224.167 424.541 226.159C425.517 228.16 426.01 230.537 426.01 233.298C426.01 236.059 425.517 238.435 424.541 240.437C423.565 242.438 422.204 243.957 420.468 245.012C418.733 246.067 416.741 246.59 414.493 246.59C412.245 246.59 410.253 246.067 408.517 245.012ZM417.402 233.298C417.402 229.008 416.435 226.869 414.493 226.869C412.55 226.869 411.584 229.008 411.584 233.298C411.584 237.587 412.55 239.727 414.493 239.727C416.426 239.727 417.402 237.587 417.402 233.298Z" fill="#4D87B2"/>
<path d="M414.493 247.576C412.068 247.576 409.888 246.994 408.005 245.85C406.122 244.706 404.623 243.03 403.568 240.861C402.523 238.741 402 236.187 402 233.288C402 230.389 402.532 227.845 403.568 225.715C404.623 223.556 406.122 221.879 408.005 220.726C409.888 219.582 412.068 219 414.493 219C416.919 219 419.098 219.582 420.982 220.726C422.865 221.869 424.364 223.556 425.419 225.715C426.464 227.835 426.987 230.389 426.987 233.288C426.987 236.187 426.454 238.731 425.419 240.861C424.364 243.02 422.865 244.697 420.982 245.85C419.098 246.994 416.919 247.576 414.493 247.576ZM414.493 220.992C412.432 220.992 410.598 221.475 409.031 222.431C407.473 223.378 406.23 224.788 405.333 226.602C404.426 228.456 403.962 230.714 403.962 233.308C403.962 235.901 404.426 238.159 405.333 240.013C406.22 241.827 407.473 243.237 409.031 244.184C410.598 245.14 412.432 245.623 414.493 245.623C416.554 245.623 418.388 245.14 419.956 244.184C421.514 243.237 422.756 241.827 423.654 240.013C424.561 238.159 425.024 235.911 425.024 233.308C425.024 230.714 424.561 228.456 423.654 226.602C422.766 224.788 421.514 223.378 419.956 222.431C418.388 221.475 416.554 220.992 414.493 220.992ZM414.493 240.713C411.91 240.713 410.598 238.218 410.598 233.298C410.598 228.377 411.91 225.883 414.493 225.883C417.077 225.883 418.388 228.377 418.388 233.298C418.388 238.218 417.077 240.713 414.493 240.713ZM414.493 227.855C412.827 227.855 412.571 231.267 412.571 233.298C412.571 235.329 412.817 238.741 414.493 238.741C416.16 238.741 416.416 235.329 416.416 233.298C416.416 231.267 416.16 227.855 414.493 227.855Z" fill="white"/>
<path d="M445.909 239.362V246.008H425.527V240.742L434.717 232.243C435.516 231.493 436.049 230.852 436.315 230.32C436.581 229.787 436.719 229.265 436.719 228.762C436.719 228.131 436.502 227.638 436.088 227.293C435.664 226.938 435.053 226.77 434.254 226.77C433.475 226.77 432.755 226.977 432.075 227.391C431.394 227.805 430.872 228.387 430.517 229.137L424.048 225.902C425.015 224.088 426.435 222.648 428.298 221.593C430.162 220.538 432.41 220.016 435.053 220.016C437.064 220.016 438.839 220.341 440.397 220.992C441.945 221.643 443.158 222.579 444.026 223.792C444.894 225.005 445.337 226.395 445.337 227.973C445.337 229.373 445.041 230.695 444.45 231.917C443.858 233.14 442.704 234.53 440.979 236.078L437.35 239.382H445.909V239.362Z" fill="#4D87B2"/>
<path d="M446.895 246.994H424.541V240.309L434.047 231.513C434.925 230.685 435.289 230.162 435.437 229.866C435.634 229.472 435.733 229.097 435.733 228.742C435.733 228.318 435.585 228.141 435.457 228.032C435.22 227.835 434.806 227.736 434.254 227.736C433.662 227.736 433.11 227.894 432.588 228.21C432.075 228.525 431.68 228.959 431.404 229.541L430.97 230.438L422.707 226.307L423.181 225.409C424.236 223.437 425.794 221.85 427.815 220.706C429.817 219.572 432.252 219 435.053 219C437.183 219 439.115 219.355 440.772 220.055C442.488 220.775 443.848 221.83 444.825 223.181C445.811 224.561 446.313 226.159 446.313 227.934C446.313 229.482 445.978 230.951 445.327 232.302C444.667 233.653 443.464 235.112 441.63 236.759L439.884 238.346H446.895V246.994ZM426.523 245.022H444.933V240.348H434.796L440.318 235.329C441.935 233.87 443.03 232.568 443.562 231.474C444.085 230.389 444.351 229.216 444.351 227.963C444.351 226.593 443.986 225.409 443.227 224.364C442.468 223.309 441.383 222.481 440.013 221.899C438.593 221.297 436.926 220.992 435.053 220.992C432.597 220.992 430.487 221.485 428.781 222.441C427.401 223.22 426.277 224.246 425.439 225.478L430.142 227.825C430.527 227.303 431 226.869 431.562 226.524C432.39 226.021 433.298 225.764 434.254 225.764C435.289 225.764 436.118 226.021 436.719 226.514C437.37 227.056 437.715 227.825 437.715 228.742C437.715 229.403 437.547 230.073 437.212 230.744C436.887 231.385 436.295 232.115 435.408 232.943L426.533 241.157V245.022H426.523Z" fill="white"/>
<path d="M484.754 269V268.246C485.361 267.969 486.071 267.761 486.886 267.622V252.204C486.487 252.117 486.106 252.022 485.742 251.918C485.378 251.797 485.049 251.675 484.754 251.554V250.8H487.406C487.701 250.8 488.047 250.791 488.446 250.774C488.845 250.757 489.252 250.739 489.668 250.722C490.101 250.687 490.509 250.661 490.89 250.644C491.289 250.609 491.618 250.592 491.878 250.592C494.825 250.592 497.087 251.381 498.664 252.958C500.259 254.535 501.056 256.771 501.056 259.666C501.056 261.035 500.857 262.309 500.458 263.488C500.077 264.649 499.487 265.655 498.69 266.504C497.893 267.353 496.879 268.021 495.648 268.506C494.435 268.991 492.996 269.234 491.332 269.234C491.072 269.234 490.777 269.217 490.448 269.182C490.119 269.165 489.772 269.139 489.408 269.104C489.044 269.087 488.671 269.061 488.29 269.026C487.926 269.009 487.579 269 487.25 269H484.754ZM491.514 251.944C491.063 251.944 490.63 251.953 490.214 251.97C489.798 251.97 489.469 251.996 489.226 252.048V267.804C489.313 267.821 489.469 267.839 489.694 267.856C489.919 267.856 490.162 267.865 490.422 267.882C490.682 267.882 490.925 267.882 491.15 267.882C491.393 267.882 491.566 267.882 491.67 267.882C492.866 267.882 493.88 267.657 494.712 267.206C495.544 266.755 496.22 266.157 496.74 265.412C497.277 264.649 497.667 263.774 497.91 262.786C498.153 261.798 498.274 260.758 498.274 259.666C498.274 258.817 498.153 257.941 497.91 257.04C497.685 256.121 497.303 255.289 496.766 254.544C496.246 253.781 495.553 253.157 494.686 252.672C493.819 252.187 492.762 251.944 491.514 251.944ZM503.474 262.5C503.474 261.408 503.613 260.446 503.89 259.614C504.185 258.765 504.601 258.054 505.138 257.482C505.676 256.893 506.317 256.451 507.062 256.156C507.825 255.844 508.666 255.688 509.584 255.688C510.659 255.688 511.586 255.853 512.366 256.182C513.146 256.511 513.779 256.979 514.264 257.586C514.767 258.175 515.131 258.886 515.356 259.718C515.599 260.55 515.72 261.477 515.72 262.5C515.72 264.684 515.166 266.365 514.056 267.544C512.947 268.723 511.456 269.312 509.584 269.312C508.544 269.312 507.643 269.156 506.88 268.844C506.118 268.515 505.485 268.055 504.982 267.466C504.48 266.859 504.098 266.14 503.838 265.308C503.596 264.459 503.474 263.523 503.474 262.5ZM505.97 262.5C505.97 263.28 506.04 264.017 506.178 264.71C506.334 265.403 506.568 266.01 506.88 266.53C507.21 267.033 507.634 267.431 508.154 267.726C508.674 268.021 509.298 268.168 510.026 268.168C510.962 268.168 511.725 267.709 512.314 266.79C512.921 265.871 513.224 264.441 513.224 262.5C513.224 261.703 513.146 260.966 512.99 260.29C512.852 259.597 512.626 258.999 512.314 258.496C512.002 257.976 511.604 257.569 511.118 257.274C510.633 256.979 510.052 256.832 509.376 256.832C508.354 256.832 507.53 257.291 506.906 258.21C506.282 259.129 505.97 260.559 505.97 262.5ZM527.881 267.18C527.569 267.787 527.058 268.298 526.347 268.714C525.654 269.113 524.839 269.312 523.903 269.312C522.881 269.312 521.988 269.156 521.225 268.844C520.48 268.515 519.856 268.055 519.353 267.466C518.851 266.859 518.469 266.14 518.209 265.308C517.967 264.459 517.845 263.523 517.845 262.5C517.845 260.299 518.383 258.617 519.457 257.456C520.532 256.277 521.997 255.688 523.851 255.688C524.701 255.688 525.455 255.766 526.113 255.922C526.789 256.061 527.361 256.251 527.829 256.494C527.777 257.066 527.682 257.707 527.543 258.418C527.405 259.129 527.231 259.718 527.023 260.186H526.321L525.229 257.092C525.108 257.005 524.969 256.945 524.813 256.91C524.657 256.858 524.397 256.832 524.033 256.832C522.855 256.832 521.945 257.265 521.303 258.132C520.662 258.981 520.341 260.429 520.341 262.474C520.341 263.133 520.428 263.774 520.601 264.398C520.792 265.022 521.069 265.585 521.433 266.088C521.815 266.573 522.283 266.963 522.837 267.258C523.409 267.553 524.068 267.7 524.813 267.7C525.42 267.7 525.949 267.613 526.399 267.44C526.85 267.267 527.231 267.059 527.543 266.816L527.881 267.18ZM530.893 263.852C530.893 262.76 530.919 261.694 530.971 260.654C531.023 259.597 531.049 258.548 531.049 257.508L529.333 257.3V256.624C529.887 256.416 530.451 256.234 531.023 256.078C531.612 255.922 532.184 255.792 532.739 255.688H533.389C533.389 256.988 533.363 258.279 533.311 259.562C533.259 260.845 533.233 262.119 533.233 263.384C533.233 264.06 533.267 264.667 533.337 265.204C533.423 265.741 533.562 266.192 533.753 266.556C533.961 266.92 534.238 267.206 534.585 267.414C534.931 267.605 535.373 267.7 535.911 267.7C536.691 267.7 537.341 267.423 537.861 266.868C538.398 266.296 538.814 265.559 539.109 264.658V257.508L537.419 257.3V256.624C537.956 256.416 538.511 256.234 539.083 256.078C539.672 255.922 540.244 255.792 540.799 255.688H541.449V267.518L543.165 267.726V268.272C542.662 268.497 542.151 268.697 541.631 268.87C541.128 269.043 540.599 269.173 540.045 269.26H539.395L539.213 266.166H539.109C539.022 266.53 538.866 266.903 538.641 267.284C538.433 267.648 538.155 267.986 537.809 268.298C537.462 268.593 537.063 268.835 536.613 269.026C536.179 269.217 535.703 269.312 535.183 269.312C534.489 269.312 533.874 269.225 533.337 269.052C532.817 268.896 532.375 268.61 532.011 268.194C531.647 267.778 531.369 267.223 531.179 266.53C530.988 265.819 530.893 264.927 530.893 263.852ZM558.068 269H552.504V268.35C552.678 268.246 552.886 268.142 553.128 268.038C553.388 267.917 553.692 267.813 554.038 267.726V261.72C554.038 261.027 554.004 260.403 553.934 259.848C553.882 259.293 553.77 258.834 553.596 258.47C553.44 258.089 553.206 257.803 552.894 257.612C552.582 257.404 552.175 257.3 551.672 257.3C551.291 257.3 550.936 257.378 550.606 257.534C550.294 257.69 550.008 257.898 549.748 258.158C549.506 258.418 549.289 258.713 549.098 259.042C548.925 259.371 548.786 259.718 548.682 260.082V267.726C548.96 267.813 549.22 267.908 549.462 268.012C549.722 268.099 549.974 268.211 550.216 268.35V269H544.626V268.35C544.869 268.229 545.138 268.116 545.432 268.012C545.727 267.908 546.03 267.813 546.342 267.726V257.508L544.626 257.3V256.624C545.181 256.381 545.744 256.191 546.316 256.052C546.906 255.896 547.478 255.775 548.032 255.688H548.682V258.626H548.708C548.986 257.811 549.454 257.118 550.112 256.546C550.788 255.974 551.62 255.688 552.608 255.688C553.024 255.688 553.423 255.731 553.804 255.818C554.186 255.905 554.541 256.069 554.87 256.312C555.2 256.537 555.477 256.858 555.702 257.274C555.928 257.69 556.092 258.227 556.196 258.886C556.508 257.933 557.011 257.161 557.704 256.572C558.398 255.983 559.264 255.688 560.304 255.688C560.946 255.688 561.5 255.775 561.968 255.948C562.454 256.104 562.852 256.39 563.164 256.806C563.476 257.222 563.702 257.785 563.84 258.496C563.996 259.207 564.074 260.108 564.074 261.2V267.726C564.664 267.83 565.236 268.038 565.79 268.35V269H560.2V268.35C560.72 268.073 561.232 267.865 561.734 267.726V261.252C561.734 260.628 561.7 260.073 561.63 259.588C561.578 259.103 561.466 258.695 561.292 258.366C561.119 258.019 560.876 257.759 560.564 257.586C560.252 257.395 559.836 257.3 559.316 257.3C558.484 257.3 557.834 257.586 557.366 258.158C556.916 258.73 556.586 259.458 556.378 260.342V267.726C556.985 267.899 557.548 268.107 558.068 268.35V269ZM577.862 267.18C577.723 267.475 577.506 267.752 577.212 268.012C576.917 268.272 576.579 268.497 576.198 268.688C575.816 268.879 575.4 269.026 574.95 269.13C574.499 269.251 574.04 269.312 573.572 269.312C572.549 269.312 571.648 269.156 570.868 268.844C570.088 268.515 569.438 268.055 568.918 267.466C568.398 266.859 567.999 266.14 567.722 265.308C567.462 264.476 567.332 263.54 567.332 262.5C567.332 260.281 567.843 258.591 568.866 257.43C569.888 256.269 571.336 255.688 573.208 255.688C573.814 255.688 574.412 255.775 575.002 255.948C575.591 256.104 576.111 256.373 576.562 256.754C577.03 257.135 577.402 257.647 577.68 258.288C577.974 258.912 578.122 259.692 578.122 260.628C578.122 260.923 578.104 261.226 578.07 261.538C578.052 261.833 578.009 262.153 577.94 262.5H569.828C569.828 263.228 569.914 263.913 570.088 264.554C570.278 265.178 570.556 265.724 570.92 266.192C571.284 266.66 571.743 267.033 572.298 267.31C572.852 267.57 573.502 267.7 574.248 267.7C574.854 267.7 575.47 267.613 576.094 267.44C576.718 267.267 577.186 267.041 577.498 266.764L577.862 267.18ZM573.104 256.832C572.116 256.832 571.362 257.17 570.842 257.846C570.322 258.505 570.01 259.675 569.906 261.356H575.626C575.643 261.2 575.652 261.053 575.652 260.914C575.669 260.758 575.678 260.611 575.678 260.472C575.678 259.363 575.47 258.479 575.054 257.82C574.638 257.161 573.988 256.832 573.104 256.832ZM594.344 269H588.754V268.35C589.222 268.107 589.733 267.899 590.288 267.726V261.564C590.288 260.247 590.097 259.207 589.716 258.444C589.334 257.681 588.641 257.3 587.636 257.3C587.202 257.3 586.795 257.378 586.414 257.534C586.05 257.69 585.72 257.907 585.426 258.184C585.148 258.444 584.906 258.747 584.698 259.094C584.49 259.423 584.325 259.77 584.204 260.134V267.726C584.741 267.83 585.261 268.038 585.764 268.35V269H580.148V268.35C580.581 268.125 581.153 267.917 581.864 267.726V257.508L580.148 257.3V256.624C580.598 256.433 581.118 256.26 581.708 256.104C582.297 255.948 582.912 255.809 583.554 255.688H584.204V258.6H584.23C584.594 257.803 585.114 257.118 585.79 256.546C586.483 255.974 587.315 255.688 588.286 255.688C588.979 255.688 589.594 255.775 590.132 255.948C590.686 256.104 591.146 256.39 591.51 256.806C591.874 257.222 592.151 257.785 592.342 258.496C592.532 259.189 592.628 260.073 592.628 261.148V267.726C593.321 267.847 593.893 268.055 594.344 268.35V269ZM595.169 256.624C595.828 256.208 596.521 255.913 597.249 255.74V253.53C597.475 253.339 597.735 253.175 598.029 253.036C598.341 252.88 598.645 252.733 598.939 252.594H599.589V256H603.489V257.3H599.589V264.84C599.589 265.88 599.754 266.617 600.083 267.05C600.413 267.483 600.907 267.7 601.565 267.7C601.877 267.7 602.267 267.683 602.735 267.648C603.203 267.596 603.602 267.509 603.931 267.388L604.113 267.778C603.975 267.934 603.775 268.099 603.515 268.272C603.273 268.445 602.987 268.61 602.657 268.766C602.345 268.922 601.999 269.052 601.617 269.156C601.236 269.26 600.846 269.312 600.447 269.312C599.407 269.312 598.61 269.017 598.055 268.428C597.518 267.839 597.249 266.885 597.249 265.568V257.3H595.169V256.624Z" fill="white"/>
<g filter="url(#filter3_d_0_1011)">
<rect x="822" y="230" width="250" height="60" rx="4" fill="#5D768D"/>
</g>
<path d="M810.518 245.012C808.782 243.957 807.432 242.429 806.446 240.437C805.469 238.435 804.976 236.059 804.976 233.298C804.976 230.537 805.469 228.16 806.446 226.159C807.422 224.157 808.782 222.639 810.518 221.583C812.253 220.528 814.245 220.006 816.493 220.006C818.742 220.006 820.733 220.528 822.469 221.583C824.204 222.639 825.555 224.167 826.541 226.159C827.518 228.16 828.011 230.537 828.011 233.298C828.011 236.059 827.518 238.435 826.541 240.437C825.565 242.438 824.204 243.957 822.469 245.012C820.733 246.067 818.742 246.59 816.493 246.59C814.245 246.59 812.253 246.067 810.518 245.012ZM819.402 233.298C819.402 229.008 818.436 226.869 816.493 226.869C814.551 226.869 813.585 229.008 813.585 233.298C813.585 237.587 814.551 239.727 816.493 239.727C818.426 239.727 819.402 237.587 819.402 233.298Z" fill="#5D768D"/>
<path d="M816.493 247.576C814.068 247.576 811.888 246.994 810.005 245.85C808.122 244.706 806.623 243.03 805.568 240.861C804.523 238.741 804 236.187 804 233.288C804 230.389 804.532 227.845 805.568 225.715C806.623 223.556 808.122 221.879 810.005 220.726C811.888 219.582 814.068 219 816.493 219C818.919 219 821.098 219.582 822.982 220.726C824.865 221.869 826.364 223.556 827.419 225.715C828.464 227.835 828.987 230.389 828.987 233.288C828.987 236.187 828.454 238.731 827.419 240.861C826.364 243.02 824.865 244.697 822.982 245.85C821.098 246.994 818.919 247.576 816.493 247.576ZM816.493 220.992C814.432 220.992 812.598 221.475 811.031 222.431C809.473 223.378 808.23 224.788 807.333 226.602C806.426 228.456 805.962 230.714 805.962 233.308C805.962 235.901 806.426 238.159 807.333 240.013C808.22 241.827 809.473 243.237 811.031 244.184C812.598 245.14 814.432 245.623 816.493 245.623C818.554 245.623 820.388 245.14 821.956 244.184C823.514 243.237 824.756 241.827 825.654 240.013C826.561 238.159 827.024 235.911 827.024 233.308C827.024 230.714 826.561 228.456 825.654 226.602C824.766 224.788 823.514 223.378 821.956 222.431C820.388 221.475 818.554 220.992 816.493 220.992ZM816.493 240.713C813.91 240.713 812.598 238.218 812.598 233.298C812.598 228.377 813.91 225.883 816.493 225.883C819.077 225.883 820.388 228.377 820.388 233.298C820.388 238.218 819.077 240.713 816.493 240.713ZM816.493 227.855C814.827 227.855 814.571 231.267 814.571 233.298C814.571 235.329 814.817 238.741 816.493 238.741C818.16 238.741 818.416 235.329 818.416 233.298C818.416 231.267 818.16 227.855 816.493 227.855Z" fill="white"/>
<path d="M846.371 233.278C847.426 234.55 847.949 236.079 847.949 237.873C847.949 239.402 847.535 240.821 846.696 242.143C845.858 243.464 844.576 244.539 842.831 245.357C841.086 246.176 838.916 246.59 836.333 246.59C834.538 246.59 832.754 246.393 830.979 246.008C829.194 245.624 827.646 245.052 826.315 244.302L829.224 237.982C830.269 238.583 831.383 239.047 832.586 239.362C833.789 239.678 834.943 239.835 836.057 239.835C837.053 239.835 837.852 239.668 838.453 239.323C839.055 238.987 839.36 238.504 839.36 237.873C839.36 236.71 838.354 236.128 836.343 236.128H832.961V230.862L836.698 227.046H827.616V220.578H846.578V225.843L841.855 230.636C843.807 231.129 845.316 232.006 846.371 233.278Z" fill="#5D768D"/>
<path d="M836.323 247.576C834.469 247.576 832.596 247.369 830.752 246.974C828.878 246.57 827.222 245.959 825.812 245.16L825.023 244.716L828.76 236.581L829.697 237.124C830.653 237.686 831.708 238.11 832.813 238.406C833.927 238.701 835.002 238.849 836.027 238.849C836.845 238.849 837.486 238.721 837.94 238.465C838.315 238.258 838.344 238.06 838.344 237.873C838.344 237.37 837.664 237.114 836.313 237.114H831.945V230.458L834.321 228.032H826.6V219.592H847.534V226.248L843.649 230.192C845.069 230.764 846.233 231.582 847.11 232.647C848.313 234.097 848.915 235.852 848.915 237.873C848.915 239.579 848.442 241.196 847.505 242.665C846.568 244.144 845.128 245.347 843.225 246.245C841.381 247.132 839.054 247.576 836.323 247.576ZM827.586 243.858C828.642 244.361 829.845 244.756 831.176 245.042C832.882 245.416 834.617 245.604 836.323 245.604C838.758 245.604 840.8 245.219 842.407 244.46C843.975 243.72 845.128 242.764 845.858 241.61C846.598 240.437 846.962 239.214 846.962 237.873C846.962 236.305 846.519 235.004 845.612 233.909C844.704 232.815 843.353 232.036 841.608 231.602L839.932 231.188L845.582 225.449V221.574H828.592V226.07H839.035L833.927 231.276V235.152H836.323C839.804 235.152 840.326 236.857 840.326 237.883C840.326 238.869 839.823 239.687 838.916 240.2C837.398 241.058 834.824 240.989 832.32 240.328C831.402 240.082 830.515 239.757 829.667 239.352L827.586 243.858Z" fill="white"/>
<path d="M886.754 269V268.246C887.361 267.969 888.071 267.761 888.886 267.622V252.204C888.487 252.117 888.106 252.022 887.742 251.918C887.378 251.797 887.049 251.675 886.754 251.554V250.8H889.406C889.701 250.8 890.047 250.791 890.446 250.774C890.845 250.757 891.252 250.739 891.668 250.722C892.101 250.687 892.509 250.661 892.89 250.644C893.289 250.609 893.618 250.592 893.878 250.592C896.825 250.592 899.087 251.381 900.664 252.958C902.259 254.535 903.056 256.771 903.056 259.666C903.056 261.035 902.857 262.309 902.458 263.488C902.077 264.649 901.487 265.655 900.69 266.504C899.893 267.353 898.879 268.021 897.648 268.506C896.435 268.991 894.996 269.234 893.332 269.234C893.072 269.234 892.777 269.217 892.448 269.182C892.119 269.165 891.772 269.139 891.408 269.104C891.044 269.087 890.671 269.061 890.29 269.026C889.926 269.009 889.579 269 889.25 269H886.754ZM893.514 251.944C893.063 251.944 892.63 251.953 892.214 251.97C891.798 251.97 891.469 251.996 891.226 252.048V267.804C891.313 267.821 891.469 267.839 891.694 267.856C891.919 267.856 892.162 267.865 892.422 267.882C892.682 267.882 892.925 267.882 893.15 267.882C893.393 267.882 893.566 267.882 893.67 267.882C894.866 267.882 895.88 267.657 896.712 267.206C897.544 266.755 898.22 266.157 898.74 265.412C899.277 264.649 899.667 263.774 899.91 262.786C900.153 261.798 900.274 260.758 900.274 259.666C900.274 258.817 900.153 257.941 899.91 257.04C899.685 256.121 899.303 255.289 898.766 254.544C898.246 253.781 897.553 253.157 896.686 252.672C895.819 252.187 894.762 251.944 893.514 251.944ZM905.474 262.5C905.474 261.408 905.613 260.446 905.89 259.614C906.185 258.765 906.601 258.054 907.138 257.482C907.676 256.893 908.317 256.451 909.062 256.156C909.825 255.844 910.666 255.688 911.584 255.688C912.659 255.688 913.586 255.853 914.366 256.182C915.146 256.511 915.779 256.979 916.264 257.586C916.767 258.175 917.131 258.886 917.356 259.718C917.599 260.55 917.72 261.477 917.72 262.5C917.72 264.684 917.166 266.365 916.056 267.544C914.947 268.723 913.456 269.312 911.584 269.312C910.544 269.312 909.643 269.156 908.88 268.844C908.118 268.515 907.485 268.055 906.982 267.466C906.48 266.859 906.098 266.14 905.838 265.308C905.596 264.459 905.474 263.523 905.474 262.5ZM907.97 262.5C907.97 263.28 908.04 264.017 908.178 264.71C908.334 265.403 908.568 266.01 908.88 266.53C909.21 267.033 909.634 267.431 910.154 267.726C910.674 268.021 911.298 268.168 912.026 268.168C912.962 268.168 913.725 267.709 914.314 266.79C914.921 265.871 915.224 264.441 915.224 262.5C915.224 261.703 915.146 260.966 914.99 260.29C914.852 259.597 914.626 258.999 914.314 258.496C914.002 257.976 913.604 257.569 913.118 257.274C912.633 256.979 912.052 256.832 911.376 256.832C910.354 256.832 909.53 257.291 908.906 258.21C908.282 259.129 907.97 260.559 907.97 262.5ZM929.881 267.18C929.569 267.787 929.058 268.298 928.347 268.714C927.654 269.113 926.839 269.312 925.903 269.312C924.881 269.312 923.988 269.156 923.225 268.844C922.48 268.515 921.856 268.055 921.353 267.466C920.851 266.859 920.469 266.14 920.209 265.308C919.967 264.459 919.845 263.523 919.845 262.5C919.845 260.299 920.383 258.617 921.457 257.456C922.532 256.277 923.997 255.688 925.851 255.688C926.701 255.688 927.455 255.766 928.113 255.922C928.789 256.061 929.361 256.251 929.829 256.494C929.777 257.066 929.682 257.707 929.543 258.418C929.405 259.129 929.231 259.718 929.023 260.186H928.321L927.229 257.092C927.108 257.005 926.969 256.945 926.813 256.91C926.657 256.858 926.397 256.832 926.033 256.832C924.855 256.832 923.945 257.265 923.303 258.132C922.662 258.981 922.341 260.429 922.341 262.474C922.341 263.133 922.428 263.774 922.601 264.398C922.792 265.022 923.069 265.585 923.433 266.088C923.815 266.573 924.283 266.963 924.837 267.258C925.409 267.553 926.068 267.7 926.813 267.7C927.42 267.7 927.949 267.613 928.399 267.44C928.85 267.267 929.231 267.059 929.543 266.816L929.881 267.18ZM932.893 263.852C932.893 262.76 932.919 261.694 932.971 260.654C933.023 259.597 933.049 258.548 933.049 257.508L931.333 257.3V256.624C931.887 256.416 932.451 256.234 933.023 256.078C933.612 255.922 934.184 255.792 934.739 255.688H935.389C935.389 256.988 935.363 258.279 935.311 259.562C935.259 260.845 935.233 262.119 935.233 263.384C935.233 264.06 935.267 264.667 935.337 265.204C935.423 265.741 935.562 266.192 935.753 266.556C935.961 266.92 936.238 267.206 936.585 267.414C936.931 267.605 937.373 267.7 937.911 267.7C938.691 267.7 939.341 267.423 939.861 266.868C940.398 266.296 940.814 265.559 941.109 264.658V257.508L939.419 257.3V256.624C939.956 256.416 940.511 256.234 941.083 256.078C941.672 255.922 942.244 255.792 942.799 255.688H943.449V267.518L945.165 267.726V268.272C944.662 268.497 944.151 268.697 943.631 268.87C943.128 269.043 942.599 269.173 942.045 269.26H941.395L941.213 266.166H941.109C941.022 266.53 940.866 266.903 940.641 267.284C940.433 267.648 940.155 267.986 939.809 268.298C939.462 268.593 939.063 268.835 938.613 269.026C938.179 269.217 937.703 269.312 937.183 269.312C936.489 269.312 935.874 269.225 935.337 269.052C934.817 268.896 934.375 268.61 934.011 268.194C933.647 267.778 933.369 267.223 933.179 266.53C932.988 265.819 932.893 264.927 932.893 263.852ZM960.068 269H954.504V268.35C954.678 268.246 954.886 268.142 955.128 268.038C955.388 267.917 955.692 267.813 956.038 267.726V261.72C956.038 261.027 956.004 260.403 955.934 259.848C955.882 259.293 955.77 258.834 955.596 258.47C955.44 258.089 955.206 257.803 954.894 257.612C954.582 257.404 954.175 257.3 953.672 257.3C953.291 257.3 952.936 257.378 952.606 257.534C952.294 257.69 952.008 257.898 951.748 258.158C951.506 258.418 951.289 258.713 951.098 259.042C950.925 259.371 950.786 259.718 950.682 260.082V267.726C950.96 267.813 951.22 267.908 951.462 268.012C951.722 268.099 951.974 268.211 952.216 268.35V269H946.626V268.35C946.869 268.229 947.138 268.116 947.432 268.012C947.727 267.908 948.03 267.813 948.342 267.726V257.508L946.626 257.3V256.624C947.181 256.381 947.744 256.191 948.316 256.052C948.906 255.896 949.478 255.775 950.032 255.688H950.682V258.626H950.708C950.986 257.811 951.454 257.118 952.112 256.546C952.788 255.974 953.62 255.688 954.608 255.688C955.024 255.688 955.423 255.731 955.804 255.818C956.186 255.905 956.541 256.069 956.87 256.312C957.2 256.537 957.477 256.858 957.702 257.274C957.928 257.69 958.092 258.227 958.196 258.886C958.508 257.933 959.011 257.161 959.704 256.572C960.398 255.983 961.264 255.688 962.304 255.688C962.946 255.688 963.5 255.775 963.968 255.948C964.454 256.104 964.852 256.39 965.164 256.806C965.476 257.222 965.702 257.785 965.84 258.496C965.996 259.207 966.074 260.108 966.074 261.2V267.726C966.664 267.83 967.236 268.038 967.79 268.35V269H962.2V268.35C962.72 268.073 963.232 267.865 963.734 267.726V261.252C963.734 260.628 963.7 260.073 963.63 259.588C963.578 259.103 963.466 258.695 963.292 258.366C963.119 258.019 962.876 257.759 962.564 257.586C962.252 257.395 961.836 257.3 961.316 257.3C960.484 257.3 959.834 257.586 959.366 258.158C958.916 258.73 958.586 259.458 958.378 260.342V267.726C958.985 267.899 959.548 268.107 960.068 268.35V269ZM979.862 267.18C979.723 267.475 979.506 267.752 979.212 268.012C978.917 268.272 978.579 268.497 978.198 268.688C977.816 268.879 977.4 269.026 976.95 269.13C976.499 269.251 976.04 269.312 975.572 269.312C974.549 269.312 973.648 269.156 972.868 268.844C972.088 268.515 971.438 268.055 970.918 267.466C970.398 266.859 969.999 266.14 969.722 265.308C969.462 264.476 969.332 263.54 969.332 262.5C969.332 260.281 969.843 258.591 970.866 257.43C971.888 256.269 973.336 255.688 975.208 255.688C975.814 255.688 976.412 255.775 977.002 255.948C977.591 256.104 978.111 256.373 978.562 256.754C979.03 257.135 979.402 257.647 979.68 258.288C979.974 258.912 980.122 259.692 980.122 260.628C980.122 260.923 980.104 261.226 980.07 261.538C980.052 261.833 980.009 262.153 979.94 262.5H971.828C971.828 263.228 971.914 263.913 972.088 264.554C972.278 265.178 972.556 265.724 972.92 266.192C973.284 266.66 973.743 267.033 974.298 267.31C974.852 267.57 975.502 267.7 976.248 267.7C976.854 267.7 977.47 267.613 978.094 267.44C978.718 267.267 979.186 267.041 979.498 266.764L979.862 267.18ZM975.104 256.832C974.116 256.832 973.362 257.17 972.842 257.846C972.322 258.505 972.01 259.675 971.906 261.356H977.626C977.643 261.2 977.652 261.053 977.652 260.914C977.669 260.758 977.678 260.611 977.678 260.472C977.678 259.363 977.47 258.479 977.054 257.82C976.638 257.161 975.988 256.832 975.104 256.832ZM996.344 269H990.754V268.35C991.222 268.107 991.733 267.899 992.288 267.726V261.564C992.288 260.247 992.097 259.207 991.716 258.444C991.334 257.681 990.641 257.3 989.636 257.3C989.202 257.3 988.795 257.378 988.414 257.534C988.05 257.69 987.72 257.907 987.426 258.184C987.148 258.444 986.906 258.747 986.698 259.094C986.49 259.423 986.325 259.77 986.204 260.134V267.726C986.741 267.83 987.261 268.038 987.764 268.35V269H982.148V268.35C982.581 268.125 983.153 267.917 983.864 267.726V257.508L982.148 257.3V256.624C982.598 256.433 983.118 256.26 983.708 256.104C984.297 255.948 984.912 255.809 985.554 255.688H986.204V258.6H986.23C986.594 257.803 987.114 257.118 987.79 256.546C988.483 255.974 989.315 255.688 990.286 255.688C990.979 255.688 991.594 255.775 992.132 255.948C992.686 256.104 993.146 256.39 993.51 256.806C993.874 257.222 994.151 257.785 994.342 258.496C994.532 259.189 994.628 260.073 994.628 261.148V267.726C995.321 267.847 995.893 268.055 996.344 268.35V269ZM997.169 256.624C997.828 256.208 998.521 255.913 999.249 255.74V253.53C999.475 253.339 999.735 253.175 1000.03 253.036C1000.34 252.88 1000.64 252.733 1000.94 252.594H1001.59V256H1005.49V257.3H1001.59V264.84C1001.59 265.88 1001.75 266.617 1002.08 267.05C1002.41 267.483 1002.91 267.7 1003.57 267.7C1003.88 267.7 1004.27 267.683 1004.74 267.648C1005.2 267.596 1005.6 267.509 1005.93 267.388L1006.11 267.778C1005.97 267.934 1005.78 268.099 1005.52 268.272C1005.27 268.445 1004.99 268.61 1004.66 268.766C1004.35 268.922 1004 269.052 1003.62 269.156C1003.24 269.26 1002.85 269.312 1002.45 269.312C1001.41 269.312 1000.61 269.017 1000.06 268.428C999.518 267.839 999.249 266.885 999.249 265.568V257.3H997.169V256.624Z" fill="white"/>
<defs>
<filter id="filter0_d_0_1011" x="416" y="0" width="258" height="68" filterUnits="userSpaceOnUse" color-interpolation-filters="sRGB">
<feFlood flood-opacity="0" result="BackgroundImageFix"/>
<feColorMatrix in="SourceAlpha" type="matrix" values="0 0 0 0 0 0 0 0 0 0 0 0 0 0 0 0 0 0 127 0" result="hardAlpha"/>
<feOffset/>
<feGaussianBlur stdDeviation="2"/>
<feColorMatrix type="matrix" values="0 0 0 0 0 0 0 0 0 0 0 0 0 0 0 0 0 0 0.25 0"/>
<feBlend mode="normal" in2="BackgroundImageFix" result="effect1_dropShadow_0_1011"/>
<feBlend mode="normal" in="SourceGraphic" in2="effect1_dropShadow_0_1011" result="shape"/>
</filter>
<filter id="filter1_d_0_1011" x="14" y="226" width="258" height="68" filterUnits="userSpaceOnUse" color-interpolation-filters="sRGB">
<feFlood flood-opacity="0" result="BackgroundImageFix"/>
<feColorMatrix in="SourceAlpha" type="matrix" values="0 0 0 0 0 0 0 0 0 0 0 0 0 0 0 0 0 0 127 0" result="hardAlpha"/>
<feOffset/>
<feGaussianBlur stdDeviation="2"/>
<feColorMatrix type="matrix" values="0 0 0 0 0 0 0 0 0 0 0 0 0 0 0 0 0 0 0.25 0"/>
<feBlend mode="normal" in2="BackgroundImageFix" result="effect1_dropShadow_0_1011"/>
<feBlend mode="normal" in="SourceGraphic" in2="effect1_dropShadow_0_1011" result="shape"/>
</filter>
<filter id="filter2_d_0_1011" x="416" y="226" width="258" height="68" filterUnits="userSpaceOnUse" color-interpolation-filters="sRGB">
<feFlood flood-opacity="0" result="BackgroundImageFix"/>
<feColorMatrix in="SourceAlpha" type="matrix" values="0 0 0 0 0 0 0 0 0 0 0 0 0 0 0 0 0 0 127 0" result="hardAlpha"/>
<feOffset/>
<feGaussianBlur stdDeviation="2"/>
<feColorMatrix type="matrix" values="0 0 0 0 0 0 0 0 0 0 0 0 0 0 0 0 0 0 0.25 0"/>
<feBlend mode="normal" in2="BackgroundImageFix" result="effect1_dropShadow_0_1011"/>
<feBlend mode="normal" in="SourceGraphic" in2="effect1_dropShadow_0_1011" result="shape"/>
</filter>
<filter id="filter3_d_0_1011" x="818" y="226" width="258" height="68" filterUnits="userSpaceOnUse" color-interpolation-filters="sRGB">
<feFlood flood-opacity="0" result="BackgroundImageFix"/>
<feColorMatrix in="SourceAlpha" type="matrix" values="0 0 0 0 0 0 0 0 0 0 0 0 0 0 0 0 0 0 127 0" result="hardAlpha"/>
<feOffset/>
<feGaussianBlur stdDeviation="2"/>
<feColorMatrix type="matrix" values="0 0 0 0 0 0 0 0 0 0 0 0 0 0 0 0 0 0 0.25 0"/>
<feBlend mode="normal" in2="BackgroundImageFix" result="effect1_dropShadow_0_1011"/>
<feBlend mode="normal" in="SourceGraphic" in2="effect1_dropShadow_0_1011" result="shape"/>
</filter>
</defs>
</svg>
